<?xml version="1.0" encoding="utf-8"?>
<!-- Generator: Adobe Illustrator 23.1.0, SVG Export Plug-In . SVG Version: 6.00 Build 0)  -->
<svg version="1.1" id="Слой_1" xmlns="http://www.w3.org/2000/svg" xmlns:xlink="http://www.w3.org/1999/xlink" x="0px" y="0px"
	 viewBox="0 0 512 512" style="enable-background:new 0 0 512 512;" xml:space="preserve">
<style type="text/css">
	.st0{opacity:0.5;}
	.st1{fill:#00243A;}
	.st2{fill-rule:evenodd;clip-rule:evenodd;fill:#B70058;}
	.st3{fill:#B70058;}
</style>
<g class="st0">
	<path class="st1" d="M315.1,88.5H77.2c-8.7,0-15.8,7.1-15.8,15.8v156.8c0,8.7,7.1,15.8,15.8,15.8h77.4v38.9h-42.6
		c-4.4,0-7.9,3.5-7.9,7.9s3.5,7.9,7.9,7.9h168.4c4.4,0,7.9-3.5,7.9-7.9s-3.5-7.9-7.9-7.9h-42.6v-38.9h77.4c8.7,0,15.8-7.1,15.8-15.8
		V104.3C330.9,95.6,323.8,88.5,315.1,88.5z M221.9,315.8h-51.6v-38.9h51.6V315.8z M315.1,261.1c-6.9,0-232.3,0-237.9,0V104.3h237.9
		C315.1,264.5,315.1,261.1,315.1,261.1z"/>
</g>
<path class="st2" d="M185.1,209.3c12.4,5.4,68.5,1.4,70.9,2.6c0.7,2.1-0.1,19.8,30.6,19.2c-1.6,2.2-11.2,2-12.5,1.8
	c-13.4-2-17.7-11.1-16.6-23.6c-1.7,3-29.8,2-34.3,2C217.7,211.4,187.8,208.5,185.1,209.3z"/>
<path class="st3" d="M277,234.5c-1.8,0-3.1-0.1-3.1-0.1c-9.8-1.4-15.6-6.5-17.4-15.2c-0.8-1.8-1.4-3.9-1.7-6.1c0,0,0,0,0,0
	c-2.1-0.1-8,0-14.2,0.1c-18.8,0.4-47.3,1.1-56-2.7c-0.5-0.2-0.9-0.8-0.8-1.4c0-0.6,0.4-1.1,1-1.3c1.8-0.5,10.7,0.1,24.1,1.1
	c6.3,0.5,12.3,0.9,14.3,0.9c0.6,0,1.8,0,3.3,0.1c22.6,0.4,28.7-0.5,29.8-1.4c0.3-0.5,1-0.7,1.6-0.6c0.6,0.2,1,0.8,1,1.5
	c-0.3,3.5-0.2,6.6,0.4,9.2c2.6,5.2,9.2,11.3,27.3,11c0,0,0,0,0,0c0.5,0,1,0.3,1.2,0.7c0.2,0.5,0.2,1-0.1,1.5
	C286.2,234.2,280.6,234.5,277,234.5z M267,229.5c2,1.1,4.4,1.8,7.2,2.2c0,0,0,0,0.1,0C271.6,231.2,269.1,230.4,267,229.5z"/>
<path class="st2" d="M370.5,330.3c4.5-10.4,14-51.8,15.9-64.2c0.4-2.2,3.2-33.2,1.2-33.2c-2.1,15.6-4.1,39.5-7.2,54.8
	c-0.8,4-10.1,52.8-10,52.8L370.5,330.3z"/>
<path class="st3" d="M370.3,342c-0.4,0-0.8-0.2-1.1-0.5c-0.1-0.2-0.2-0.3-0.2-0.9l-0.1,0l0.1-10.3c0-0.2,0-0.4,0.1-0.5
	c1.1-2.6,2.6-7.3,4.2-13.1c0.1-0.4,0.2-0.9,0.3-1.3c2.5-13.1,5-26,5.3-27.9c2.1-10.1,3.7-24.4,5.1-37c0.7-6.4,1.4-12.5,2.1-17.7
	c0.1-0.7,0.7-1.2,1.4-1.2c0.5,0,0.9,0.2,1.3,0.6c2.3,2.8-1,34-1.1,34.3c-1.4,8.8-7,34.2-11.7,51.1c-2.2,11.5-4.2,22.1-4.3,23.2
	c0,0.6-0.4,1.1-0.9,1.2C370.7,342,370.5,342,370.3,342z"/>
<path class="st2" d="M415.2,129.2c2.6,3.2,9.1,7.8,12.5,10.8c5.5,5,34.3,31,36.9,35.1c-0.9-8.3-27.5-29.5-35.8-36.2
	c-4-3-9.2-7.9-13.4-10.3C414.8,128.8,414.6,128.2,415.2,129.2z"/>
<path class="st3" d="M464.6,176.5c-0.5,0-0.9-0.2-1.2-0.6c-0.9-1.4-6.9-7.8-36.3-34.5l-0.3-0.3c-1.1-1-2.7-2.2-4.3-3.5
	c-3.2-2.6-6.6-5.3-8.4-7.4c-0.1-0.1-0.1-0.2-0.2-0.3c-0.1-0.2-0.2-0.4-0.2-0.4c-0.3-0.5-0.3-1.2,0.1-1.7c0.3-0.4,0.8-0.6,1.2-0.5
	c0.3-0.1,0.7,0,1,0.1c3,1.7,6.5,4.6,9.6,7.1c1.4,1.2,2.8,2.3,4,3.3l1,0.8c16,12.9,34.5,28.8,35.3,36.4c0.1,0.6-0.3,1.3-0.9,1.5
	C464.9,176.4,464.7,176.5,464.6,176.5z"/>
<path class="st2" d="M286.5,231.2c9.5,17.7,61,20,61.4,18.1c-5.9-0.9-11.9-1.1-17.9-2.1C313.8,244.3,300,241.1,286.5,231.2z"/>
<path class="st3" d="M342.9,251.3c-13.6,0-49.5-4.3-57.6-19.4c-0.3-0.6-0.2-1.3,0.3-1.7c0.5-0.4,1.2-0.5,1.7-0.1
	c13.3,9.8,27.3,12.9,42.9,15.7c3.2,0.6,6.4,0.9,9.5,1.1c2.7,0.3,5.6,0.5,8.4,1c0.4,0.1,0.7,0.3,0.9,0.6s0.3,0.7,0.2,1.1
	c-0.2,1.2-1.6,1.4-2.2,1.5C346.2,251.2,344.8,251.3,342.9,251.3z"/>
<path class="st2" d="M455.6,190.8c-3.2,1.8-8.6,6.7-12.3,9.2c-4.2,2.9-8.6,5.8-13,8.6c-8.8,5.4-18.2,10.3-26.8,15.6l-0.7,0.9
	c10-3.6,21.2-9.9,30.2-15.6c5-3.2,22.7-15.2,24.6-19.9l0.3-0.7L455.6,190.8z"/>
<path class="st3" d="M402.9,226.4c-0.4,0-0.8-0.2-1.1-0.6c-0.4-0.5-0.4-1.2,0-1.7l0.7-0.9c0.1-0.2,0.2-0.3,0.4-0.4
	c4.4-2.7,9-5.3,13.5-7.8c4.4-2.5,8.9-5.1,13.3-7.7c3.9-2.4,8.1-5.1,13-8.5c1.6-1.1,3.6-2.7,5.5-4.2c2.5-2,4.9-3.9,6.7-5l2.3-1.8
	c0.5-0.4,1.2-0.4,1.7,0c0.5,0.4,0.7,1.1,0.5,1.6l-0.3,0.7c-2.5,6-25,20.4-25.2,20.6c-8,5.1-19.8,11.9-30.5,15.7
	C403.2,226.4,403.1,226.4,402.9,226.4z"/>
<path class="st2" d="M400,134.9c-0.7,0-0.5-0.1-0.5,0.7c1.8,4.7,11.7,17.7,15.3,22.3c5,6.3,15,17.5,22.9,19.8
	C424.6,167.2,410.5,147.8,400,134.9z"/>
<path class="st3" d="M437.7,179c-0.1,0-0.3,0-0.4-0.1c-8.9-2.5-19.5-15-23.6-20.2c-9-11.6-14.2-19.2-15.5-22.6
	c-0.1-0.2-0.1-0.3-0.1-0.5l0-0.3c0-0.3,0-0.9,0.4-1.3c0.5-0.5,1-0.4,1.3-0.4l0.2,0c0.4,0,0.8,0.2,1.1,0.5c2.2,2.6,4.5,5.6,6.9,8.6
	c9.5,12,20.3,25.7,30.6,33.9c0.5,0.4,0.7,1.1,0.4,1.7C438.7,178.7,438.2,179,437.7,179z M415.3,156.2c0.2,0.2,0.4,0.5,0.6,0.8
	c1.1,1.4,3.2,4,5.9,6.8C419.6,161.3,417.4,158.8,415.3,156.2z"/>
<path class="st2" d="M306.2,187.6l-0.7-0.4v0.4c1.7,7.4,14.5,18.8,25.6,21.2c2.4,0.5,14.1,2.2,15.3,0.8c-0.1-0.1-12.7-2.2-14.6-2.9
	c-3.7-1.2-6.9-2.8-10.1-4.7C311.8,196.2,310.5,191.3,306.2,187.6z"/>
<path class="st3" d="M342.7,211.6c-5,0-11.9-1.4-12-1.4c-11.9-2.6-24.8-14.6-26.6-22.3c0-0.1,0-0.2,0-0.3v-0.4c0-0.5,0.3-1,0.7-1.2
	c0.4-0.2,1-0.2,1.4,0l0.7,0.4c0.1,0,0.1,0.1,0.2,0.1c1.6,1.3,2.8,2.8,4,4.4c2.3,2.9,5,6.2,11.2,9.9c3.6,2.2,6.6,3.6,9.9,4.6
	c1.2,0.4,6.7,1.4,10.3,2.1c4.5,0.8,4.5,0.8,4.9,1.2c0.5,0.5,0.6,1.3,0.1,1.9C346.8,211.3,345,211.6,342.7,211.6z"/>
<path class="st2" d="M364.5,103.6c1.2,0.8,0.9,0.8,1.2,2.5c-0.5,2.1,3.8,9,5.1,10.7c-1.1-8-12.8-33.6-9.1-39.8
	c4.2-1.6,10.5,5.1,13,9c0.4-4.6-12.1-12.8-14.8-11.1C356.1,79.1,362.4,98.2,364.5,103.6z"/>
<path class="st3" d="M370.9,118.2c-0.4,0-0.8-0.2-1.1-0.5c-0.1-0.1-5.8-8-5.4-11.5c0-0.3-0.1-0.5-0.1-0.7c0-0.2,0-0.3,0-0.4
	c-0.1-0.1-0.2-0.1-0.4-0.3c-0.2-0.2-0.4-0.4-0.5-0.7c-0.1-0.2-9.5-24.5-4.2-30.2c0.1-0.1,0.2-0.2,0.3-0.2c2-1.3,5.5,0.4,8.2,1.9
	c3.4,2,9.1,6.5,8.8,10.4c-0.1,0.6-0.5,1.1-1.1,1.2c-0.6,0.1-1.2-0.1-1.5-0.6c-2.6-4-7.9-9-10.9-8.5c-1.5,4,2.6,16,5.5,24.9
	c1.9,5.7,3.6,10.6,4,13.5c0.1,0.6-0.3,1.2-0.9,1.5C371.2,118.2,371.1,118.2,370.9,118.2z M364.2,105.2L364.2,105.2L364.2,105.2z"/>
<path class="st2" d="M349.9,339.1c0.5-2-1.7-40.7-1.8-46c-0.1-6.9-0.4-13.8-0.3-20.7c0-1.7,0.3-23.2,0-23.2
	c-2.1,0.7-1.1,40.3-1.1,43.9c0,3.3,2.1,37.2,2.8,40.5L349.9,339.1z"/>
<path class="st3" d="M349.9,340.5c0,0-0.1,0-0.1,0c-0.7-0.1-1.2-0.6-1.3-1.3l-0.4-5.5c-0.7-4.1-2.8-38-2.8-40.6c0-0.5,0-1.8-0.1-3.6
	c-0.7-40.7,0.5-41.1,2.1-41.6c0.5-0.2,1.1,0,1.4,0.4c0.6,0.6,0.6,0.6,0.4,21.2c0,1.5,0,2.6,0,3c-0.1,5.1,0,10.4,0.1,15.5
	c0,1.7,0.1,3.4,0.1,5.1c0,1.6,0.3,6.8,0.6,12.8c1.1,21.7,1.5,32.3,1.2,33.6C351.1,340.1,350.5,340.5,349.9,340.5z"/>
<path class="st2" d="M347.9,207l0.5,0.3c0.9-1.4,0.5-1.1,1.6-2c3.4-5.4,8.7-8.7,15-10c4.1-0.8,7.6-0.9,11.7-0.5
	c2.4,0.3,9,2.2,10.3,2.1c-2.8-2.9-16.3-5.8-23.1-4.3C356.4,194.1,349.4,201,347.9,207z"/>
<path class="st3" d="M348.5,208.6c-0.2,0-0.4,0-0.6-0.1l-0.5-0.3c-0.6-0.3-0.9-0.9-0.7-1.6c1.5-6.1,8.7-13.8,17.2-15.5
	c6.9-1.5,21,1.3,24.4,4.8c0.4,0.4,0.5,0.9,0.3,1.5c-0.2,0.5-0.6,0.9-1.2,0.9c-0.9,0.1-2.4-0.3-5.8-1.1c-1.9-0.5-3.8-0.9-4.8-1
	c-4.1-0.4-7.4-0.2-11.3,0.5c-6.1,1.3-11,4.5-14.1,9.4c-0.1,0.1-0.2,0.2-0.3,0.3l-0.2,0.2c-0.4,0.4-0.4,0.4-0.6,0.7
	c-0.1,0.2-0.3,0.4-0.5,0.8C349.4,208.4,348.9,208.6,348.5,208.6z M366.9,193.5c-0.9,0.1-1.8,0.2-2.6,0.3c-1.3,0.3-2.6,0.7-3.8,1.3
	c1.3-0.5,2.8-0.9,4.2-1.2C365.5,193.7,366.2,193.6,366.9,193.5z"/>
<path class="st2" d="M360.6,416.6c4.3-10.1,10.1-45.3,10.7-57.6c0-1.7,0.3-18.8-0.8-18.7c-0.7,2.2-0.4,14.6-0.7,18.4
	c-0.4,5.8-0.9,11.2-1.6,17L360.6,416.6z"/>
<path class="st3" d="M360.6,418c-0.1,0-0.3,0-0.4-0.1c-0.7-0.2-1.1-0.9-1-1.6l7.6-40.9c0.7-6.3,1.2-11.5,1.6-16.8
	c0.1-1.4,0.1-4,0.1-6.8c0.1-6.2,0.1-10.4,0.6-11.9c0.2-0.5,0.6-0.9,1.2-1c0.4-0.1,0.9,0.1,1.2,0.4c0.7,0.6,1.3,1.2,1.2,18.7l0,1
	c-0.5,12.8-6.5,48-10.8,58.1C361.7,417.7,361.1,418,360.6,418z"/>
<path class="st2" d="M345,407.9c0.9-1.4,6.7-69.6,4.9-68.8c-1.7,10.4-1.8,24-2.8,34.9C346.9,377.2,344.3,407.3,345,407.9z"/>
<path class="st3" d="M345,409.3c-0.3,0-0.6-0.1-0.9-0.3c-0.8-0.7-1.3-1.1,1.5-33.9l0.1-1.2c0.3-3.8,0.5-7.8,0.8-12.1
	c0.4-7.9,0.9-16.1,2-23c0.1-0.5,0.4-0.9,0.8-1.1c0.6-0.2,1.3-0.1,1.7,0.4c0.5,0.6,1.4,1.7-1.2,35.5c-0.4,5.6-2.7,33.4-3.6,34.9
	c-0.2,0.3-0.6,0.6-1,0.6C345.2,409.3,345.1,409.3,345,409.3z"/>
<path class="st2" d="M386.8,196.8l34.7-12.4c2.9-0.9,14.1-5.8,16.2-7C432.4,175.7,390.8,192.6,386.8,196.8z"/>
<path class="st3" d="M386.8,198.2c-0.5,0-0.9-0.2-1.2-0.6c-0.4-0.5-0.3-1.3,0.1-1.7c3.7-3.9,45.9-21.8,52.3-19.7
	c0.5,0.2,0.9,0.6,1,1.2c0.1,0.6-0.2,1.1-0.7,1.4c-2.2,1.2-13.4,6.1-16.5,7.1l-34.6,12.4C387.1,198.2,387,198.2,386.8,198.2z
	 M424.3,181.9c-3.9,1.3-8.4,2.9-12.8,4.7l9.5-3.4C421.7,182.9,422.9,182.4,424.3,181.9z"/>
<path class="st2" d="M124.3,194.1c22.3,0.9,32.2,1.3,49.6,1.6c3.6,0.1,27.1,1.6,27.9,1.3C196.8,192.3,136,195.1,124.3,194.1z"/>
<path class="st3" d="M201,198.4c-1.8,0-6.5-0.2-19.2-0.9c-3.8-0.2-6.9-0.4-8-0.4c-15.8-0.2-25.4-0.6-44.2-1.4
	c-2.3,0-4.1-0.1-5.4-0.2c-0.8-0.1-1.3-0.7-1.3-1.5c0-0.8,0.7-1.3,1.5-1.3c1.9,0.1,3.6,0.2,5.4,0.2c4.7,0.1,11.3,0,18.6,0
	c29.7-0.2,51-0.1,54.4,3.1c0.4,0.3,0.5,0.8,0.4,1.3c-0.1,0.5-0.5,0.9-0.9,1C202.1,198.3,201.8,198.4,201,198.4z"/>
<path class="st2" d="M315.3,421c-25.7,15.9,23.6,17.9,29.5,13.7l-22.3-0.1C309.1,431.9,309.5,425.7,315.3,421z"/>
<path class="st3" d="M331.8,438c-7.5,0-16.1-1.1-20.8-3.4c-2.9-1.4-4.4-3.2-4.5-5.3c-0.2-3,2.5-6.1,8-9.5c0.6-0.4,1.4-0.2,1.9,0.4
	c0.4,0.6,0.3,1.4-0.3,1.9c-2.5,2-3.6,4.1-3.2,5.8c0.6,2.3,4,4.2,9.7,5.3l22.1,0.1c0.6,0,1.1,0.4,1.3,1c0.2,0.6,0,1.2-0.5,1.6
	C343.6,437.3,338,438,331.8,438z M310,427.1c-0.6,0.9-0.8,1.6-0.7,2c0.1,1.3,1.6,2.3,2.9,3c0.3,0.1,0.6,0.3,0.9,0.4
	c-1.6-1.1-2.5-2.5-2.9-4C310.1,428.1,310,427.6,310,427.1z"/>
<path class="st2" d="M282.8,170.9c1.4-0.3,20-20.2,22.3-22.3c2.8-2.5,18.8-16.2,19.6-18.1C319.5,133,284.8,166.1,282.8,170.9z"/>
<path class="st3" d="M282.8,172.3c-0.4,0-0.8-0.2-1.1-0.5c-0.3-0.4-0.4-0.9-0.2-1.4c2.3-5.5,37.5-38.6,42.6-41.1
	c0.5-0.3,1.1-0.1,1.6,0.3c0.4,0.4,0.5,1,0.3,1.6c-0.6,1.3-4.6,5.1-16.6,15.6c-1.6,1.4-2.8,2.4-3.4,3c-0.6,0.6-2.9,2.9-5.4,5.6
	c-14.6,15.2-16.5,16.8-17.5,17C283,172.2,282.9,172.3,282.8,172.3z"/>
<path class="st2" d="M123.5,201.3c5.9,2.6,53.1,11.1,61.7,8.2v-0.3c-0.1-0.3-11.6-0.9-12.7-0.9c-4.3-0.4-8.3-1.1-12.5-1.6
	C157.4,206.4,124.6,201.8,123.5,201.3z"/>
<path class="st3" d="M179.3,211.5c-16,0-51.3-6.6-56.3-8.9l0,0c0,0,0,0-0.1,0c-0.7-0.3-1-1.2-0.6-1.8c0.3-0.7,1.1-1,1.8-0.7
	c2.1,0.6,33,5,36.1,5.3c1.5,0.2,2.9,0.4,4.4,0.6c2.6,0.4,5.3,0.7,8.2,1c0.5,0,3.8,0.2,6.6,0.4c6.7,0.4,6.7,0.5,7.1,1.3
	c0.1,0.2,0.1,0.4,0.1,0.6v0.3c0,0.6-0.4,1.1-0.9,1.3C184.3,211.3,182.1,211.5,179.3,211.5z"/>
<path class="st2" d="M239.6,129.3l-3,5.3l6.1-5.5c1.1,0.1,3.6-2,6.1-2c4.9-1.1,9.4,0.9,13.6,3.6c1.3,0.9,3.7,2.5,4.9,2.6
	c1.4,2.4,2.9,5.7,4.6,7.2l-2.6-6.7c0.1-2.9-8.3-7.2-10.9-8C253.9,124.5,244.6,124.6,239.6,129.3z"/>
<path class="st3" d="M271.8,141.9c-0.3,0-0.7-0.1-0.9-0.4c-1.4-1.3-2.5-3.3-3.6-5.3c-0.3-0.6-0.6-1.2-1-1.7
	c-0.9-0.3-2.3-0.9-4.8-2.7c-3.5-2.2-7.8-4.3-12.5-3.3c-0.1,0-0.2,0-0.3,0c-1.1,0-2.4,0.6-3.5,1.1c-0.8,0.4-1.4,0.7-2,0.8l-5.7,5.2
	c-0.5,0.5-1.3,0.5-1.8,0.1c-0.5-0.4-0.7-1.2-0.3-1.8l3-5.3c0.1-0.1,0.2-0.2,0.3-0.3c5.4-5.1,15.1-5.3,19.9-3.9
	c1.2,0.4,11.6,4.7,11.9,9.1l2.5,6.5c0.2,0.6,0,1.3-0.5,1.7C272.3,141.9,272,141.9,271.8,141.9z"/>
<path class="st2" d="M301.3,174.9c3.2-1.3,30-31,32.2-34.9c-2.1,0.5-14.5,15.3-16.9,17.9C314.1,160.7,302.2,172.8,301.3,174.9z"/>
<path class="st3" d="M301.3,176.3c-0.4,0-0.7-0.1-1-0.4c-0.4-0.4-0.5-1-0.3-1.5c0.7-1.5,4.8-6,12.2-13.8c1.5-1.6,2.7-2.8,3.3-3.5
	c0.4-0.5,1.3-1.4,2.3-2.6c10-11.5,13.7-15.3,15.3-15.7c0.5-0.1,1.1,0.1,1.4,0.5c0.3,0.4,0.4,1,0.1,1.5c-2.2,4.1-29.2,34-32.9,35.6
	C301.7,176.3,301.5,176.3,301.3,176.3z"/>
<path class="st2" d="M201.8,197c2.2-1.4,45.6-3.2,45.5-1.3c-2.5-1.8-16.5-2-20.4-1.8C223.7,193.8,203.2,195.8,201.8,197z"/>
<path class="st3" d="M201.7,198.4c-0.4,0-0.8-0.2-1.1-0.6c-0.4-0.6-0.3-1.5,0.3-1.9c0,0,0.1-0.1,0.1-0.1l0,0c0,0,0.1-0.1,0.2-0.1
	c3.3-1.7,24-3.3,25.6-3.3c0.1,0,15.6-0.4,20.4,1.7c0.3,0.1,0.5,0.1,0.6,0.2c0.6,0.3,0.9,0.9,0.8,1.5c0,0.5-0.3,1-0.8,1.2
	c-0.5,0.2-1,0.2-1.4-0.1c-0.1-0.1-0.2-0.1-0.3-0.2c-4.6-1-40.5,0.2-43.7,1.6C202.2,198.3,202,198.4,201.7,198.4z"/>
<path class="st2" d="M365.9,106.2c-0.3-1.7,0-1.7-1.3-2.6l-0.4,1.4c-10,5-31.4,32.3-30,34.5c1.4-1.3,9.5-14,14.6-19
	c5.3-5,9.8-10.8,15.8-15.2L365.9,106.2z"/>
<path class="st3" d="M334.1,140.9c-0.1,0-0.1,0-0.2,0c-0.4-0.1-0.8-0.3-1-0.7c-0.4-0.7-0.2-1.6-0.1-1.9c1.6-5.3,20.3-28.8,30.2-34.3
	l0.2-0.9c0.1-0.4,0.4-0.8,0.9-0.9c0.4-0.2,0.9-0.1,1.3,0.2c1.4,1,1.6,1.5,1.8,2.8c0,0.2,0.1,0.4,0.1,0.7c0.1,0.5-0.2,1.1-0.6,1.4
	c-0.5,0.3-1,0.3-1.5,0l-0.5-0.3c-3.6,2.7-6.6,5.9-9.6,9.1c-1.7,1.8-3.5,3.6-5.3,5.4c-3.2,3.1-7.5,9.3-10.7,13.8
	c-2.2,3.1-3.3,4.7-3.9,5.2C334.8,140.8,334.5,140.9,334.1,140.9z"/>
<path class="st2" d="M360.6,416.6c2.1,3.8,8.8,8.6,8.8,12.9c0.1,7.2-20.8,4.7-24.8,5.1c2.5,0.3,19,2.4,21.3,1.4
	c3.3-1.2,5.3-2.8,5.1-6.5C370.9,424,363.2,420.7,360.6,416.6z"/>
<path class="st3" d="M363.5,437.8c-3.2,0-8.7-0.5-17.3-1.5c-0.8-0.1-1.3-0.2-1.7-0.2c-0.7-0.1-1.3-0.7-1.3-1.4
	c0-0.7,0.5-1.3,1.3-1.4c0.9-0.1,2.5,0,4.5,0c5.5,0.1,15.6,0.4,18.4-2.3c0.4-0.4,0.6-0.9,0.6-1.4c0-2.2-2.5-5-4.8-7.4
	c-1.6-1.7-3-3.3-3.9-4.9c-0.4-0.7-0.1-1.5,0.5-1.9c0.6-0.4,1.5-0.2,1.9,0.4c0.9,1.3,2.4,2.6,4.1,4c3.1,2.6,6.5,5.5,6.7,9.7
	c0.2,4.9-3,6.7-6.1,7.8C365.9,437.7,365,437.8,363.5,437.8z"/>
<path class="st2" d="M324.6,130.7c3.2-1.6,35.6-32.4,37.2-35.6c-2.4,0.7-17.1,15-20,17.4c-2.2,1.8-5.1,5.4-7.5,7.6
	C332.5,121.8,325,128.6,324.6,130.7z"/>
<path class="st3" d="M324.6,132.1c-0.3,0-0.6-0.1-0.8-0.3c-0.4-0.3-0.6-0.9-0.5-1.4c0.3-1.8,3.3-4.9,8.6-9.9
	c0.6-0.6,1.1-1.1,1.4-1.4c1-1,2.1-2.2,3.2-3.3c1.5-1.6,3.1-3.3,4.4-4.4c0.9-0.7,3-2.6,5.4-4.9c9-8.3,13.5-12.3,15.2-12.8
	c0.5-0.1,1.1,0,1.5,0.5c0.4,0.4,0.4,1,0.2,1.5c-1.6,3.2-34.1,34.4-37.8,36.2C325,132,324.8,132.1,324.6,132.1z"/>
<path class="st2" d="M279.3,166c1.8,0,4.6-2.2,5.7-3.7c8.8-13-8.3-17.7-10.3-17.7c6.1,3.2,13.2,6.1,8.3,16.5
	C281.9,163.9,280.1,164.5,279.3,166z"/>
<path class="st3" d="M279.3,167.4c-0.5,0-1-0.3-1.2-0.7c-0.3-0.4-0.3-1,0-1.4c0.4-0.8,1-1.3,1.5-1.8c0.8-0.7,1.5-1.5,2.1-2.9
	c4.1-8.7-0.6-11.1-6.6-14.2l-1-0.5c-0.6-0.3-0.9-0.9-0.7-1.6c0.2-0.6,0.7-1.1,1.4-1.1c1.5,0,10.1,2.1,13.1,7.8
	c1.9,3.5,1.3,7.6-1.7,12C285,164.6,281.9,167.4,279.3,167.4z M286,154.5c0,1.1-0.1,2.2-0.4,3.5C286,156.8,286.1,155.6,286,154.5z"/>
<path class="st2" d="M232.8,173.8c0.1-0.3-2.1-21.2-1.1-24.8c0.7-5.8,1.6-8.4,4.2-13.6C228,143.6,230.7,172.4,232.8,173.8z"/>
<path class="st3" d="M232.8,175.2c-0.3,0-0.5-0.1-0.7-0.2c-0.5-0.3-1.5-0.9-2.3-7.3c-1-8.5-1.3-26.5,5.2-33.2
	c0.5-0.5,1.3-0.6,1.8-0.2c0.6,0.4,0.7,1.2,0.4,1.8c-2.5,4.9-3.4,7.4-4.1,13.1c0,0.1,0,0.2,0,0.2c-0.7,2.4,0.4,15.7,0.8,20.7
	c0.3,3.9,0.3,3.9,0.1,4.3c-0.2,0.4-0.5,0.6-0.9,0.7C233,175.1,232.9,175.2,232.8,175.2z"/>
<path class="st2" d="M393.1,128.3c-3.2,0.7-14.6,10.1-19.5,8.7c-5.5-1.7-2-19.2-3-21.3c-2.2,2.5-2.4,21.2,1.6,22.9
	C375.8,140.2,392.2,130.8,393.1,128.3z"/>
<path class="st3" d="M373.2,140.2c-0.8,0-1.2-0.1-1.6-0.3c-1.4-0.6-2.5-2.4-3.2-5.5c-1.4-6.2-1.1-17.2,1.1-19.6
	c0.3-0.3,0.8-0.5,1.2-0.5c0.5,0.1,0.9,0.3,1.1,0.8c0.5,1,0.4,2.6,0.2,6.3c-0.3,4.7-0.8,13.5,2,14.4c2.6,0.8,8.6-3,12.6-5.5
	c3.1-1.9,4.9-3,6.2-3.3c0.5-0.1,1,0.1,1.3,0.5c0.3,0.4,0.4,0.9,0.3,1.4c-1,2.6-10,7.6-14.6,9.6C376.5,139.7,374.5,140.2,373.2,140.2
	z"/>
<path class="st2" d="M325.1,408.9h1.3c-0.4-2-0.5-2.2,0.3-4.1c2.9-1.1,4.7-0.4,6.3,1.8c1.1,4.3-1.2,4.2-1.3,6.3
	c2.4-1.3,4.7-5.9,1.8-8.4c-2.2-2-6.6-3.6-9-1.2C324.4,405.8,324.6,406.5,325.1,408.9z"/>
<path class="st3" d="M331.7,414.3c-0.3,0-0.5-0.1-0.7-0.2c-0.4-0.3-0.7-0.8-0.6-1.3c0.1-1.2,0.6-1.9,1-2.4c0.5-0.7,0.9-1.3,0.4-3.2
	c-1.1-1.5-2.2-1.8-4-1.3c-0.3,0.8-0.3,1,0,2.3l0.1,0.4c0.1,0.4,0,0.8-0.3,1.2c-0.3,0.3-0.7,0.5-1.1,0.5h-1.3c-0.7,0-1.2-0.5-1.4-1.1
	l-0.2-0.8c-0.4-1.8-0.6-2.8-0.4-5.2c0-0.3,0.2-0.6,0.4-0.8c3.1-3.1,8.3-1.1,10.9,1.1c1.3,1.2,2,2.8,1.8,4.7c-0.2,2.4-1.9,4.9-3.9,6
	C332.2,414.3,332,414.3,331.7,414.3z"/>
<path class="st2" d="M391.3,106.8c-1.3-0.9-0.9-0.9-1.1-0.1c2.2,7.6,10.8,4.1,10.7-0.7c-1.4-1.8-5.9-2.5-7.9-1.7
	c0.9,1.8,5.1,0.3,6.3,2.9c-0.8,1.4-2.5,2.4-4.1,2.2C393.3,109.2,392.6,107.2,391.3,106.8z"/>
<path class="st3" d="M395.3,112.5c-2.5,0-5.2-1.4-6.4-5.4c-0.1-0.2-0.1-0.4,0-0.6c0-0.1,0-0.2,0-0.2c0-0.8,0.5-1.2,0.8-1.4
	c0.8-0.4,1.5,0.1,1.7,0.3c0.1,0.1,0.3,0.2,0.5,0.4c0.2,0.1,0.3,0.1,0.5,0.2c-0.3-0.2-0.5-0.5-0.7-0.9c-0.2-0.3-0.2-0.8-0.1-1.1
	c0.1-0.4,0.4-0.7,0.8-0.8c2.4-0.9,7.6-0.4,9.5,2.1c0.2,0.2,0.3,0.5,0.3,0.8c0.1,3-2.6,5.9-6,6.5C396,112.5,395.7,112.5,395.3,112.5z
	 M392.9,106.1c0.3,0.3,0.6,0.5,0.8,0.8c0.6,0.6,1,1,1.7,1.1c0.7,0.1,1.5-0.3,2.1-0.8c-0.4-0.2-1.1-0.3-2-0.4
	C394.7,106.7,393.7,106.6,392.9,106.1z"/>
<path class="st2" d="M390.2,106.8c0.3-0.9-0.3-0.8,1.1,0c-3.6-7.6-0.3-2.1-1.3-4.7c-1.7-2-4.6-5.4-3.7-8c2.9-1.8,4.1,6.9,4.9,8.2
	c1.4-2.5-1.6-10.4-5.3-10c-2.9,2.6-0.7,5.3,1.1,7.6C390.6,104.6,387.5,103.9,390.2,106.8z"/>
<path class="st3" d="M390.2,108.2c-0.4,0-0.7-0.2-1-0.4c-1.5-1.6-1.7-2.5-1.7-3.6c0-0.6,0-1.3-1.7-3.5l-0.3-0.5
	c-1.7-2.3-4.2-5.7-0.5-9.1c0.2-0.2,0.5-0.3,0.8-0.4c1.9-0.2,3.7,0.9,5.1,3.1c1.7,2.7,2.8,6.8,1.5,9c-0.2,0.4-0.6,0.6-1,0.7
	c0.2,0.6,0.6,1.4,1.2,2.6c0.3,0.6,0.1,1.2-0.3,1.6c-0.4,0.4-1,0.5-1.5,0.3c-0.1,0-0.1,0-0.2,0.1
	C390.5,108.2,390.4,108.2,390.2,108.2z M387.7,96.1c0.1,0.3,0.2,0.7,0.4,1C388,96.7,387.8,96.4,387.7,96.1z"/>
<path class="st2" d="M317.1,417.2l-0.9-0.7c0.9-2,0.5-0.9,0.4-1.7l-1.3,0.5l-1.4,0.7c0.3,1.8,0.9,2.1,2.8,3
	c3.2,1.4,10.4,3.2,10.1-3.2C324.1,421.9,320.1,417.8,317.1,417.2z"/>
<path class="st3" d="M322.3,421.8c-2.9,0-5.8-1.3-6.3-1.5l-0.2-0.1c-1.8-0.9-3-1.5-3.3-4c-0.1-0.6,0.2-1.2,0.8-1.5l1.4-0.7l1.4-0.6
	c0.4-0.2,0.8-0.1,1.2,0.1c0.3,0.2,0.5,0.4,0.6,0.8c0.4,0.5,0.3,1.1,0.1,1.6c0.7,0.2,1.4,0.5,2,0.8c1.3,0.6,2.7,1.2,3.6,0.8
	c0.7-0.3,1.3-1,1.9-2.3c0.3-0.6,0.9-0.9,1.5-0.8c0.6,0.1,1.1,0.7,1.1,1.3c0.1,2.9-1.1,4.3-2.2,5
	C324.9,421.5,323.6,421.8,322.3,421.8z"/>
<path class="st2" d="M315.3,415.3l1.3-0.4c0.1,0.8,0.5-0.4-0.4,1.7l0.9,0.5v-1.4c3.4-1.3,6.6-1.4,10.1-1.7c1.7,1.3,0.3,0.5,1.7,0.8
	c-0.1-0.9-2-5.3-2.5-5.9h-1.2l1.4,4.2C324.2,413.3,317,413.3,315.3,415.3z"/>
<path class="st3" d="M317.1,418.6c-0.2,0-0.5-0.1-0.7-0.2l-0.9-0.5c-0.4-0.3-0.7-0.7-0.7-1.2c-0.3-0.1-0.5-0.3-0.7-0.6
	c-0.3-0.5-0.3-1.2,0.1-1.7c1.6-1.9,5.7-2.3,10.5-2.6c0,0,0.1,0,0.1,0l-0.9-2.5c-0.1-0.4-0.1-0.9,0.2-1.3c0.3-0.4,0.7-0.6,1.1-0.6
	h1.2c0.4,0,0.8,0.2,1.1,0.5c0.7,0.9,2.6,5.4,2.8,6.6c0.1,0.4-0.1,0.9-0.4,1.2c-0.3,0.3-0.8,0.4-1.2,0.4c-0.1,0-0.1,0-0.2,0
	c-0.5,0.1-1-0.1-1.3-0.4c-0.1,0-0.2-0.1-0.4-0.3l-0.3,0c-2.9,0.2-5.4,0.4-8,1.2v0.5c0,0.5-0.3,1-0.7,1.2
	C317.6,418.5,317.3,418.6,317.1,418.6z M329.1,415.9C329.1,415.9,329.1,415.9,329.1,415.9C329.1,415.9,329.1,415.9,329.1,415.9z
	 M329.1,415.9C329.1,415.9,329.1,415.9,329.1,415.9C329.1,415.9,329.1,415.9,329.1,415.9z M329.1,415.9
	C329.1,415.9,329.1,415.9,329.1,415.9C329.1,415.9,329.1,415.9,329.1,415.9z"/>
<path class="st2" d="M415.2,129.2c-0.5-1.1-0.3-0.3,0.3-0.7c-0.9-1.4-13.2-11.6-14.9-12.4c0.1,1.8,7.6,7.6,9.1,9
	C411.2,126.6,413.3,128.7,415.2,129.2z"/>
<path class="st3" d="M415.2,130.6c-0.1,0-0.3,0-0.4-0.1c-2-0.6-3.9-2.4-5.5-3.9l-0.5-0.5c-0.3-0.3-0.8-0.7-1.5-1.2
	c-6-5-8-7.1-8.1-8.6c0-0.5,0.2-1,0.6-1.3c0.4-0.3,0.9-0.3,1.4-0.1c1.7,0.8,14.3,11.1,15.5,12.9c0.3,0.5,0.3,1.1-0.1,1.6
	c0,0.3-0.1,0.5-0.3,0.7C416,130.4,415.6,130.6,415.2,130.6z"/>
<path class="st2" d="M232.8,173.8c2.5,2.5,14.9-0.4,15.9-5.3c-1.6,2.2-4.7,3.8-8.2,5C237.8,174.3,234.2,173.2,232.8,173.8z"/>
<path class="st3" d="M236.2,176.1c-1.8,0-3.5-0.4-4.4-1.3c-0.3-0.3-0.5-0.8-0.4-1.3c0.1-0.5,0.4-0.8,0.9-1c0.9-0.3,2.1-0.2,3.5-0.1
	c1.4,0.1,3.1,0.2,4.4-0.1c3.7-1.3,6.2-2.8,7.4-4.5c0.4-0.5,1.1-0.7,1.7-0.5c0.6,0.3,0.9,0.9,0.8,1.6c-0.6,2.7-3.7,5.1-8.3,6.4
	C240.1,175.7,238,176.1,236.2,176.1z"/>
<path class="st2" d="M455.6,190.8l2.4-1.8l-0.3,0.8c1.7-0.9,8.3-9.8,7.4-13.8c-1.1,1.6-5.5,10.4-6.6,11.5
	C457.3,188.5,456.1,189.6,455.6,190.8z"/>
<path class="st3" d="M455.6,192.2c-0.3,0-0.6-0.1-0.9-0.3c-0.5-0.4-0.7-1.1-0.4-1.7c0.6-1.3,1.6-2.3,2.7-3.3l0.5-0.5
	c0.5-0.6,2.7-4.5,4-6.9c1.1-2.1,2-3.7,2.5-4.4c0.3-0.5,0.9-0.7,1.4-0.6c0.5,0.1,1,0.5,1.1,1.1c1.1,4.8-5.9,14.2-8.1,15.4
	c-0.3,0.2-0.6,0.2-0.9,0.1l-1,0.8C456.2,192.1,455.9,192.2,455.6,192.2z"/>
<path class="st2" d="M399.5,135.5c0.1-0.8-0.1-0.7,0.7-0.7c-0.5-1.4-4.9-7.1-6.2-7.2C394.2,129.2,398.3,134.6,399.5,135.5z"/>
<path class="st3" d="M399.5,136.9c-0.3,0-0.6-0.1-0.9-0.3c-1.2-1-5.7-6.6-6.1-8.8c-0.1-0.4,0.1-0.9,0.4-1.2c0.3-0.3,0.7-0.5,1.2-0.4
	c2.3,0.2,6.9,6.8,7.4,8.2c0.2,0.4,0.1,0.9-0.2,1.3c-0.1,0.2-0.3,0.4-0.5,0.5c-0.2,0.3-0.4,0.6-0.8,0.7
	C399.8,136.9,399.6,136.9,399.5,136.9z"/>
<path class="st2" d="M402.4,225l1.2-0.9c-1.4,0.5-15.6,7.5-16.1,9C389.3,233.2,405.7,224,402.4,225z"/>
<path class="st3" d="M387.4,234.5C387.4,234.5,387.4,234.5,387.4,234.5c-0.5,0-0.9-0.3-1.1-0.6c-0.2-0.4-0.3-0.8-0.1-1.2
	c0.9-2.4,16.8-9.7,16.9-9.8c0.6-0.2,1.4,0,1.7,0.6c0.3,0.6,0.2,1.4-0.4,1.8l-0.3,0.2c0,0.1-0.1,0.1-0.1,0.2
	C403.3,227.2,389.5,234.5,387.4,234.5z M388.7,233.8L388.7,233.8L388.7,233.8z"/>
<path class="st2" d="M348.6,206.2c-1.4,1.2-1.8,3.7-1.7,5.7l3.3-6.6c-1.2,0.8-0.8,0.5-1.7,1.8L348.6,206.2z"/>
<path class="st3" d="M346.9,213.2c-0.1,0-0.2,0-0.3,0c-0.6-0.1-1.1-0.6-1.1-1.3c-0.1-1.1-0.1-4.9,2.2-6.8c0.2-0.2,0.5-0.3,0.7-0.3
	c0.2-0.2,0.5-0.4,1-0.7c0.5-0.4,1.2-0.3,1.7,0.1c0.5,0.4,0.6,1.1,0.3,1.7l-3.3,6.6C347.9,212.9,347.4,213.2,346.9,213.2z"/>
<path class="st2" d="M272.3,140.5h-1.2c0.9,1.6,1.3,3.3,2.8,3.3C273.6,142.5,273.2,141.3,272.3,140.5z"/>
<path class="st3" d="M273.9,145.2c-2,0-2.8-1.6-3.4-2.9c-0.2-0.3-0.3-0.7-0.5-1c-0.3-0.4-0.3-1,0-1.4c0.2-0.4,0.7-0.7,1.2-0.7h1.2
	c0.3,0,0.7,0.1,0.9,0.3c1.3,1.1,1.8,2.7,2,4.1c0.1,0.4,0,0.8-0.3,1.2C274.7,145.1,274.3,145.2,273.9,145.2z"/>
<path class="st2" d="M305.5,187.6v-0.3l0.8,0.3l-5.1-12.7C300.5,176.4,304.5,186.5,305.5,187.6z"/>
<path class="st3" d="M306.3,189c-0.1,0-0.3,0-0.4-0.1c-0.5,0.1-1,0-1.4-0.4c-1.2-1.2-5.7-11.9-4.6-14.2c0.2-0.5,0.7-0.9,1.3-0.8
	c0.6,0,1.1,0.4,1.3,0.9l5.1,12.7c0.2,0.5,0.1,1.1-0.3,1.5C307.1,188.8,306.7,189,306.3,189z M302.5,175.4L302.5,175.4z"/>
<path class="st3" d="M120.8,202.2c-0.1,0-0.2,0-0.2,0c-0.5-0.1-11.4-2-12.6-8.9c-0.1-0.8,0.4-1.5,1.1-1.6s1.5,0.4,1.6,1.1
	c0.7,4.2,7.7,6.2,10.3,6.6c0.8,0.1,1.3,0.8,1.2,1.6C122,201.7,121.4,202.2,120.8,202.2z"/>
</svg>
