<?xml version="1.0" encoding="utf-8"?>
<!-- Generator: Adobe Illustrator 23.1.0, SVG Export Plug-In . SVG Version: 6.00 Build 0)  -->
<svg version="1.1" id="Слой_1" xmlns="http://www.w3.org/2000/svg" xmlns:xlink="http://www.w3.org/1999/xlink" x="0px" y="0px"
	 viewBox="0 0 512 512" style="enable-background:new 0 0 512 512;" xml:space="preserve">
<style type="text/css">
	.st0{fill:none;stroke:#FF3399;stroke-width:32;stroke-linecap:round;stroke-linejoin:round;}
</style>
<title>ionicons-v5-q</title>
<line class="st0" x1="48" y1="256" x2="464" y2="256"/>
<path class="st0" d="M400,128L400,128c8.8,0,16,7.2,16,16v224c0,8.8-7.2,16-16,16l0,0c-8.8,0-16-7.2-16-16V144
	C384,135.2,391.2,128,400,128z"/>
<path class="st0" d="M112,128L112,128c8.8,0,16,7.2,16,16v224c0,8.8-7.2,16-16,16l0,0c-8.8,0-16-7.2-16-16V144
	C96,135.2,103.2,128,112,128z"/>
<path class="st0" d="M40,192L40,192c4.4,0,8,3.6,8,8v112c0,4.4-3.6,8-8,8l0,0c-4.4,0-8-3.6-8-8V200C32,195.6,35.6,192,40,192z"/>
<path class="st0" d="M472,192L472,192c4.4,0,8,3.6,8,8v112c0,4.4-3.6,8-8,8l0,0c-4.4,0-8-3.6-8-8V200C464,195.6,467.6,192,472,192z"
	/>
</svg>
