<?xml version="1.0" encoding="utf-8"?>
<!-- Generator: Adobe Illustrator 23.1.0, SVG Export Plug-In . SVG Version: 6.00 Build 0)  -->
<svg version="1.1" id="Capa_1" xmlns="http://www.w3.org/2000/svg" xmlns:xlink="http://www.w3.org/1999/xlink" x="0px" y="0px"
	 viewBox="0 0 512 512" style="enable-background:new 0 0 512 512;" xml:space="preserve">
<style type="text/css">
	.st0{fill:#FF3399;}
</style>
<g>
	<path class="st0" d="M296,110c-19.9,0-32.5,11.3-40,22.3c-7.5-11-20.1-22.3-40-22.3c-29,0-50,24.3-50,53.8
		c0,32.4,25,53.7,62.8,85.9c6.6,5.6,13.4,11.4,20.6,17.7c1.9,1.6,4.2,2.5,6.6,2.5c2.3,0,4.7-0.8,6.6-2.5c7.2-6.3,14-12.1,20.6-17.7
		c37.8-32.2,62.8-53.5,62.8-85.9C346,134.3,325,110,296,110L296,110z M270.3,234.6c-4.6,3.9-9.3,8-14.3,12.2
		c-4.9-4.2-9.6-8.3-14.3-12.2C207,204.9,186,187.1,186,163.8c0-19.3,12.9-33.8,30-33.8c22.2,0,30,26.4,30.4,27.7
		c1.2,4.3,5.1,7.3,9.6,7.3s8.5-3,9.6-7.4c0.1-0.3,7.8-27.6,30.4-27.6c17.1,0,30,14.5,30,33.8C326,187.1,305,204.9,270.3,234.6z"/>
	<path class="st0" d="M90.2,149.6C76.8,160.4,70,172.6,70,186s6.8,25.6,20.2,36.4c4.3,3.4,6,9.9,4,15c-6.2,16-6,30,0.7,41.6
		s18.7,18.8,35.7,21.4c5.4,0.8,10.1,5.5,10.9,10.9c1.8,11.3,5.6,20.4,11.3,27.2l-65.2,97.8c-2,3.1-2.2,7-0.5,10.3s5.1,5.3,8.8,5.3
		h52.8l17.7,53.2c1.2,3.7,4.6,6.4,8.5,6.8c3.9,0.4,7.7-1.6,9.7-5L256,382.2L327.3,507c2,3.4,5.7,5.4,9.7,5c3.9-0.4,7.3-3,8.5-6.8
		l17.7-53.2H416c3.7,0,7.1-2,8.8-5.3c1.7-3.3,1.5-7.2-0.5-10.3l-65.2-97.8c5.8-6.8,9.6-15.9,11.4-27.2c0.8-5.4,5.5-10.1,10.9-10.9
		c17-2.6,29-9.8,35.7-21.4s6.9-25.6,0.7-41.6c-2-5.1-0.3-11.5,4-15c13.4-10.8,20.2-23,20.2-36.4s-6.8-25.6-20.2-36.4
		c-4.3-3.4-6-9.9-4-15c6.2-16,6-30-0.7-41.6s-18.7-18.8-35.7-21.4c-5.4-0.8-10.1-5.5-10.9-10.9c-2.6-17-9.8-29-21.4-35.7
		c-11.4-6.6-25.8-6.9-41.6-0.7c-5.1,2-11.5,0.3-15-4C281.6,6.8,269.4,0,256,0s-25.6,6.8-36.4,20.2c-3.4,4.3-9.9,6-15,4
		c-15.8-6.1-30.2-5.9-41.6,0.7c-11.6,6.7-18.8,18.7-21.4,35.7c-0.8,5.4-5.5,10.1-10.9,10.9c-17,2.6-29,9.8-35.7,21.4
		s-6.9,25.6-0.7,41.6C96.2,139.7,94.4,146.2,90.2,149.6L90.2,149.6z M178.4,477.6l-11.5-34.4l33.6-56.1c2.8-4.7,1.3-10.9-3.4-13.7
		c-4.7-2.8-10.9-1.3-13.7,3.4L150.3,432h-35.7l54.7-82c10.2,3.6,22.3,2.9,35.3-2.2c5.1-2,11.5-0.3,15,4c6.5,8.1,13.5,13.7,21,17
		L178.4,477.6z M361.7,432l-33.1-55.1c-2.8-4.7-9-6.3-13.7-3.4c-4.7,2.8-6.3,9-3.4,13.7l33.6,56.1l-11.5,34.4l-62.2-108.8
		c7.5-3.2,14.5-8.9,21-17c3.4-4.3,9.9-6,15-4c13,5,25,5.8,35.3,2.2l54.7,82L361.7,432z M102.7,165.2c11.1-8.9,15.3-24.5,10.1-37.8
		c-3.9-10.1-4.1-18.3-0.6-24.4s10.7-10,21.4-11.7c14.1-2.2,25.5-13.6,27.7-27.7C163,53,166.9,45.8,173,42.2
		c6.1-3.5,14.3-3.3,24.4,0.6c13.3,5.2,28.8,1,37.8-10.1C242,24.3,249,20,256,20s14,4.3,20.8,12.7c8.9,11.1,24.5,15.3,37.8,10.1
		c10.1-3.9,18.3-4.1,24.4-0.6s10,10.7,11.7,21.4c2.2,14.1,13.6,25.5,27.7,27.7c10.7,1.7,17.9,5.6,21.4,11.7s3.3,14.3-0.6,24.4
		c-5.2,13.3-1,28.8,10.1,37.8C417.7,172,422,179,422,186s-4.3,14-12.7,20.8c-11.1,8.9-15.3,24.5-10.1,37.8
		c3.9,10.1,4.1,18.3,0.6,24.4s-10.7,10-21.4,11.7c-14.1,2.2-25.5,13.6-27.7,27.7c-3.3,21.1-15.4,28.8-36.1,20.8
		c-13.3-5.2-28.8-1-37.8,10.1C270,347.7,263,352,256,352s-14-4.3-20.8-12.7c-8.9-11.1-24.5-15.3-37.8-10.1
		c-20.9,8.1-32.8,0-36.1-20.8c-2.2-14.1-13.6-25.5-27.7-27.7c-10.7-1.7-17.9-5.6-21.4-11.7s-3.3-14.3,0.6-24.4
		c5.2-13.3,1-28.8-10.1-37.8C94.3,200,90,193,90,186S94.3,172,102.7,165.2L102.7,165.2z"/>
	<circle class="st0" cx="346" cy="274" r="10"/>
	<path class="st0" d="M256,322c20.1,0,39.5-4.3,57.6-12.8c5-2.3,7.1-8.3,4.8-13.3c-2.3-5-8.3-7.1-13.3-4.8
		c-15.4,7.2-32,10.9-49.1,10.9c-64,0-116-52-116-116S192,70,256,70s116,52,116,116c0,16.3-3.3,32-9.8,46.8c-2.2,5.1,0,11,5.1,13.2
		c5,2.2,11-0.1,13.2-5.1c7.7-17.3,11.6-35.8,11.6-54.8c0-75-61-136-136-136s-136,61-136,136S181,322,256,322L256,322z"/>
</g>
</svg>
