<?xml version="1.0" encoding="utf-8"?>
<!-- Generator: Adobe Illustrator 23.1.0, SVG Export Plug-In . SVG Version: 6.00 Build 0)  -->
<svg version="1.1" id="Слой_1" xmlns="http://www.w3.org/2000/svg" xmlns:xlink="http://www.w3.org/1999/xlink" x="0px" y="0px"
	 viewBox="0 0 512 512" style="enable-background:new 0 0 512 512;" xml:space="preserve">
<style type="text/css">
	.st0{fill:none;stroke:#FF3399;stroke-width:32;stroke-linecap:round;stroke-linejoin:round;}
	.st1{fill:#FF3399;}
</style>
<title>ionicons-v5-i</title>
<path class="st0" d="M145.6,464h220.8c19.8,0,35.5-16.3,33.4-35.1C386.1,308,304,310,304,256s83.1-51,95.8-172.9
	c2-18.8-13.6-35.1-33.4-35.1H145.6c-19.8,0-35.4,16.3-33.4,35.1C124.9,205,208,201,208,256s-82.1,52-95.8,172.9
	C110.1,447.7,125.8,464,145.6,464z"/>
<path class="st1" d="M343.3,432H169.1c-15.6,0-20-18-9.1-29.2C186.6,376,240,356.8,240,326V224c0-19.9-38-35-61.5-67.2
	c-3.9-5.3-3.5-12.8,6.4-12.8h142.7c8.4,0,10.2,7.4,6.4,12.8c-23.2,32.3-62,47.3-62,67.3v102c0,30.5,55.7,47,80.4,76.9
	C362.4,414.9,358.9,432,343.3,432z"/>
</svg>
