<?xml version="1.0" encoding="utf-8"?>
<!-- Generator: Adobe Illustrator 23.1.0, SVG Export Plug-In . SVG Version: 6.00 Build 0)  -->
<svg version="1.1" id="Слой_1" xmlns="http://www.w3.org/2000/svg" xmlns:xlink="http://www.w3.org/1999/xlink" x="0px" y="0px"
	 viewBox="0 0 431.9 302.8" style="enable-background:new 0 0 431.9 302.8;" xml:space="preserve">
<style type="text/css">
	.st0{fill-rule:evenodd;clip-rule:evenodd;}
	.st1{fill:none;stroke:#000000;stroke-width:2.1225;stroke-linecap:round;stroke-linejoin:round;stroke-miterlimit:10;}
	.st2{fill:none;stroke:#000000;stroke-width:2.1225;stroke-miterlimit:7.6613;}
</style>
<path class="st0" d="M215.3,163.6c-0.1-2.5,0.5-4.6,1.5-6.3c1.1-1.6,2.5-3.2,4.1-4.9c1.6-1.5,3.5-2.5,5.6-3.1
	c2.1-0.5,4.3-0.8,6.5-0.8c1.6,0,3.3,0.1,4.9,0.5c1.6,0.3,2.8,1.1,3.5,2.2c-0.3,0.2-0.8,0.3-1.3,0.4c-0.6,0.2-1.2,0.3-1.9,0.5
	c-0.6,0.1-1.3,0.3-1.9,0.4c-0.6,0.1-1.1,0.3-1.4,0.3c-0.1-0.3-0.3-0.7-0.6-1.3c-0.2-0.5-0.7-0.8-1.4-0.8c-0.9,0-1.9,0.4-3,1.2
	c-1.1,0.7-2.2,1.7-3.1,2.8c-1,1.1-1.9,2.2-2.5,3.5c-0.7,1.4-1.1,2.5-1.1,3.5c0,0.5,0.2,0.9,0.5,1.4c0.3,0.4,0.7,0.6,1.5,0.6
	c1.1,0,2.3-0.5,3.4-1.4c1.2-0.9,2.2-2,3.1-3.2c0.7-0.9,1.2-1.7,1.6-2.3c0.4-0.6,0.8-1.4,1.2-2.2l0.3-0.4c0.9-0.3,2.1-0.5,3.4-0.8
	s2.5-0.5,3.5-0.7c-0.3,0.6-0.7,1.3-1.1,2.1c-0.3,0.8-0.7,1.7-1.1,2.5c-0.4,0.9-0.7,1.8-1.1,2.6c-0.3,0.9-0.6,1.6-0.9,2.2
	c-0.1,0.3-0.2,0.6-0.3,0.9s-0.2,0.6-0.1,0.8c0,0.6,0.3,0.9,1,0.9c0.4,0,1-0.1,1.7-0.4c0.6-0.2,1.3-0.5,2-0.8c0.7-0.3,1.4-0.6,2-0.9
	c0.6-0.4,1-0.6,1.3-0.8c0,0.6-0.1,0.9-0.1,1c0,0.1,0,0.4-0.1,0.9c-0.4,0.3-1.1,0.8-2,1.3c-0.9,0.6-1.9,1.1-3,1.6
	c-1.1,0.5-2.2,0.9-3.4,1.3c-1.2,0.4-2.1,0.6-3,0.6c-0.9,0-1.7-0.3-2.3-0.8s-0.9-1.3-0.9-2.4c0-0.4,0-0.7,0.1-1.1
	c0.1-0.3,0.2-0.8,0.3-1.4h-0.2c-0.7,0.6-1.4,1.2-2.1,1.8c-0.7,0.7-1.4,1.3-2.2,1.9c-0.8,0.6-1.7,1.1-2.6,1.6
	c-0.9,0.4-1.9,0.6-3.1,0.6c-1.8,0-3.2-0.4-3.9-1.2C215.7,166.6,215.3,165.3,215.3,163.6z M191,158.6L191,158.6z M191,158.6
	c0.5-0.9,0.5-1.9,0.5-2.8c-0.1-1.7-0.6-3.4-1.6-4.9c0.3-0.1,0.6-0.2,1.2-0.4c0.5-0.1,1.1-0.3,1.8-0.5c0.6-0.1,1.2-0.3,1.9-0.5
	c0.6-0.2,1.2-0.3,1.7-0.4c0.5,0.9,1,1.8,1.3,2.7c0.4,1,0.6,1.9,0.6,3c0,0.9-0.1,1.8-0.3,2.7c-0.2,1-0.4,1.9-0.6,2.8
	c0.9-0.9,1.8-2,2.7-3.2c1-1.3,2-2.5,3.1-3.7s2.2-2.2,3.4-3.1c1.2-0.8,2.5-1.3,3.8-1.3c1.7,0,2.7,0.6,3,1.9c0.1,0.2,0.1,0.4,0.1,0.8
	c0.1,0.6-0.1,1.4-0.6,2.5c-0.2,0.6-0.5,1.3-0.9,2.3c-0.5,1-0.8,2-1.2,3c-0.4,0.9-0.8,1.8-1.1,2.6c-0.3,0.8-0.5,1.3-0.5,1.4
	c-0.2,0.3-0.3,0.5-0.3,0.6v0.2c0,0.4,0.2,0.6,0.5,0.6c0.3,0.1,0.6,0.1,0.8,0.1c0.6,0,1.1-0.1,1.7-0.3c0.6-0.2,1.1-0.5,1.7-0.8
	c0.5-0.3,1-0.6,1.5-0.9c0.5-0.2,0.9-0.4,1.2-0.6l0.1,1.5c-1.1,0.6-2.3,1.3-3.5,2c-1.2,0.7-2.5,1.3-3.6,1.8c-0.8,0.3-1.5,0.5-2.3,0.7
	c-0.7,0.2-1.5,0.3-2.3,0.3c-0.9,0-1.7-0.1-2.4-0.3c-0.7-0.3-1.1-0.9-1.1-1.9c0-0.9,0.2-1.8,0.6-2.8c0.3-0.7,0.6-1.5,1-2.2
	c0.4-0.8,0.7-1.5,1-2.3c0.4-0.7,0.6-1.4,0.9-2c0.2-0.6,0.4-1.1,0.5-1.5c0-0.1,0-0.1,0.1-0.2c0,0,0,0,0-0.1c0-0.4-0.2-0.6-0.5-0.6
	c-0.1,0-0.4,0.1-0.6,0.4c-0.5,0.3-1,0.7-1.4,1.3c-0.5,0.5-0.9,1-1.1,1.3c-0.3,0.3-0.6,0.8-1.1,1.5c-0.5,0.6-1,1.2-1.5,1.9
	c-0.6,0.6-1,1.2-1.5,1.7c-0.4,0.5-0.7,0.8-0.8,0.9c-2.4,3.1-8.4,15.2-9.5,18.9c-0.9,0.1-1.1-0.1-2.4,0c-1.3,0.2-4-0.1-5.1,0
	c1-2.2,1.3-2.7,2.3-4.7L191,158.6z M165.1,181.3L165.1,181.3z M165.1,181.3c0,0.3,0,0.5,0.1,0.8c0.2,0.2,0.3,0.3,0.6,0.3
	c0.3,0,0.7-0.2,1.1-0.5c0.4-0.3,0.7-0.8,1.1-1.3c0.4-0.4,0.8-0.9,1.1-1.4c0.3-0.5,0.5-0.9,0.6-1.1c0.5-1.4,1-2.6,1.5-3.6
	c0.5-1.1,0.8-1.9,1-2.7c-0.3,0.1-0.5,0.3-0.8,0.4c-0.3,0.1-0.5,0.3-0.7,0.4c-0.2,0.1-0.4,0.2-0.5,0.2c-1.4,0.8-2.6,2-3.7,3.6
	C165.5,178,165,179.7,165.1,181.3z M160.4,183L160.4,183z M160.4,183c0-1.3,0.3-2.6,0.8-3.7c0.4-1.2,1.1-2.2,2-3.2s1.8-1.8,2.9-2.6
	c1.1-0.7,2.2-1.4,3.4-2c0.7-0.4,1.6-0.8,2.5-1.3c0.9-0.4,1.5-0.9,1.6-1.5c0.2-0.4,0.4-0.9,0.7-1.5c0.2-0.6,0.5-1.3,0.8-1.9
	c0.3-0.7,0.5-1.3,0.8-1.9c0.3-0.6,0.5-1.1,0.6-1.5c-0.3,0.2-0.9,0.7-1.8,1.3c-0.8,0.6-1.7,1.3-2.7,2c-0.9,0.7-1.9,1.3-2.7,1.9
	c-0.9,0.6-1.5,1-1.8,1.2c-0.9,0.5-1.7,0.9-2.4,1.2c-0.7,0.3-1.6,0.4-2.6,0.5c-0.9,0-1.4-0.3-1.7-0.8c-0.3-0.5-0.5-1.1-0.5-1.8
	c0-0.8,0.1-1.4,0.3-1.9c0.4-1.1,0.9-2.4,1.6-4c0.6-1.6,1.3-3.2,1.9-4.7c0.7-1.5,1.3-2.9,1.7-4c0.5-1.2,0.8-1.9,0.8-2.1l7.5-1.2
	c-0.5,1.2-1,2.5-1.4,3.6c-0.5,1.2-1,2.4-1.5,3.5c-0.5,1.1-0.9,2.1-1.4,3c-0.4,1-0.7,1.8-1,2.5c-0.1,0.4-0.3,0.8-0.4,1.3
	c-0.2,0.4-0.2,0.8-0.2,1.1s0.1,0.5,0.4,0.5c0.2,0,0.3,0,0.4-0.1c0.1,0,0.3-0.1,0.5-0.2c0.6-0.3,1.2-0.6,1.8-1s1.1-0.7,1.5-1l0.2-0.1
	c0.1-0.1,0.4-0.3,0.8-0.6s0.9-0.7,1.3-1c0.5-0.4,1-0.7,1.4-1.1c0.5-0.3,0.7-0.6,0.9-0.8c0.2-0.2,0.4-0.5,0.7-1
	c0.2-0.4,0.4-0.9,0.6-1.4c0.3-0.5,0.5-0.9,0.6-1.3c0.2-0.4,0.3-0.7,0.3-0.8c0.5-0.1,1.2-0.3,1.9-0.5c0.8-0.2,1.5-0.4,2.2-0.6
	c0.7-0.3,1.4-0.5,2-0.6c0.6-0.2,1.1-0.3,1.5-0.4c-0.9,2.2-1.9,4.5-2.8,6.8c-0.9,2.2-1.9,4.5-2.9,6.7c0.5-0.1,1.2-0.3,1.9-0.5
	c0.7-0.3,1.5-0.6,2.2-0.8c0.8-0.4,1.5-0.7,2.1-1s1.2-0.5,1.6-0.8c0,0.2,0,0.5,0,0.8c0,0.2-0.1,0.5-0.1,0.8c-0.9,0.4-2.1,1.1-3.7,1.9
	c-1.6,0.7-3.2,1.3-4.8,1.6c-0.2,0.4-0.5,1.1-0.9,2.2c-0.4,1-0.8,2-1.2,2.8c-0.5,0.9-1,1.9-1.6,3.1c-0.6,1.2-1.2,2.2-1.9,3
	c-0.8,0.8-1.7,1.6-2.7,2.3c-0.9,0.7-2,1.4-3.1,1.9c-1.2,0.6-2.3,1.1-3.5,1.4c-1.2,0.4-2.4,0.5-3.5,0.6c-0.7,0-1.2-0.2-1.4-0.7
	C160.6,184.2,160.5,183.6,160.4,183z M127.3,161.7L127.3,161.7z M127.3,161.7l0.3,0.1l5.1-5c0.5-0.6,1.1-1.2,1.8-2
	c0.7-0.7,1.5-1.4,2.2-2.1c0.8-0.7,1.6-1.3,2.5-1.7c0.8-0.5,1.6-0.8,2.5-0.8s1.7,0.2,2.3,0.5c0.7,0.4,1,1.1,1.1,2c0,0.6,0,1-0.1,1.3
	c-0.1,0.3-0.2,0.8-0.4,1.4l-3.4,7.2l0.2,0.1l9.3-9.5c0.3-0.3,0.7-0.7,1.3-1.2c0.6-0.6,1.1-1,1.7-1.4c0.9-0.4,1.7-0.6,2.6-0.6
	c0.8,0,1.4,0.1,2,0.4c0.7,0.5,1.1,1.1,1.1,2c0,0.5-0.1,1-0.1,1.5c-0.1,0.4-0.3,0.9-0.5,1.4l-4.3,9.3c-0.1,0.2-0.1,0.3-0.2,0.5
	c0,0.2-0.1,0.3-0.1,0.4c0,0.6,0.4,0.9,0.9,0.9c0.1,0,0.2,0,0.2-0.1c0.1,0,0.1,0,0.2,0c1.1-0.4,2.3-0.8,3.6-1.4
	c1.3-0.6,2.4-1.1,3.3-1.4c0,0.1,0,0.2,0,0.6c0,0.2,0,0.5,0,0.8c-0.2,0.2-0.8,0.5-2.1,1.1c-1.1,0.5-2.5,1.1-4,1.7s-2.9,1.2-4.3,1.6
	c-1.4,0.5-2.3,0.7-2.7,0.7c-1,0-1.7-0.3-2.2-0.9c-0.5-0.7-0.7-1.4-0.7-2.1c-0.1-0.4,0-0.7,0.2-1l4.1-8.6c0.1-0.3,0.1-0.5,0.2-0.7
	c0-0.1,0-0.2,0-0.3c0-0.4-0.3-0.6-0.7-0.6l-10.4,11c-0.2,0.3-0.4,0.6-0.6,1c-0.2,0.3-0.5,0.9-0.7,1.5c-0.4,0.1-1,0.2-1.6,0.3
	c-0.7,0.1-1.4,0.2-2.2,0.3c-0.7,0.1-1.5,0.1-2.3,0.2c-0.7,0.1-1.4,0.1-2,0.2l6.2-13.3c0-0.2,0-0.4,0-0.7c0-0.1,0-0.2,0-0.3
	c-0.1-0.1-0.2-0.2-0.5-0.2c-0.3,0-0.5,0.1-0.6,0.3c-0.1,0.2-0.3,0.3-0.5,0.4l-8.6,8.8c-0.7,0.6-1.1,1.3-1.3,1.9
	c-0.2,0.6-0.5,1.4-1,2.3c-0.3,0.1-0.8,0.2-1.5,0.3c-0.7,0.1-1.5,0.2-2.3,0.3c-0.9,0.1-1.6,0.2-2.3,0.3c-0.7,0.1-1.3,0.2-1.6,0.3
	c1.2-2.9,2.6-6,4-9.5c1.4-3.5,2.8-6.8,4.1-10c0.4,0,0.9-0.1,1.7-0.2c0.7-0.1,1.5-0.2,2.3-0.3c0.8-0.1,1.6-0.2,2.3-0.3
	c0.7-0.1,1.2-0.1,1.5-0.1L127.3,161.7z M102.7,168.9L102.7,168.9z M102.7,168.9c0.9,0,1.7-0.2,2.5-0.6c0.9-0.4,1.6-0.9,2.2-1.5
	c0.7-0.7,1.2-1.4,1.6-2.1c0.3-0.8,0.6-1.6,0.6-2.4c0-0.9-0.2-1.6-0.6-2.2c-0.4-0.5-1.1-0.8-2-0.7c-0.5-0.1-0.9-0.1-1.3,0
	c-0.4,0.2-0.7,0.3-1.1,0.5c-0.7,0.4-1.3,1-1.9,2c-0.5,0.9-1,1.8-1.4,2.9c-0.7,1.4-1.1,2.4-0.9,3.2
	C100.5,168.7,101.3,169.1,102.7,168.9z M99.5,171L99.5,171z M99.5,171c-0.7,0-1.4-0.1-2.2-0.3c-0.8-0.2-1.6-0.5-2.3-0.9
	c-0.8-0.6-1.3-1.3-1.4-2.1c-0.2-0.8-0.2-1.7,0-2.6c0.2-0.9,0.5-1.8,0.9-2.7c0.4-0.9,0.8-1.7,1.1-2.4c1.1-2.4,2-4.2,2.7-5.6
	c0.8-1.5,1.3-2.5,1.5-3.2c0.3,0,0.8-0.1,1.4-0.2c0.7,0,1.5-0.1,2.3-0.2c0.7-0.1,1.5-0.2,2.3-0.3c0.8-0.1,1.5-0.2,2-0.2
	c-0.3,0.7-0.8,1.8-1.5,3.3c-0.7,1.6-1.5,3.1-2.2,4.6c0.7-0.5,1.8-1,3.1-1.6c1.2-0.6,2.4-0.9,3.3-0.8c0.9,0,1.6,0,2.4,0.2
	c0.7,0.2,1.3,0.4,1.9,0.8c0.5,0.3,1,0.8,1.3,1.5c0.3,0.6,0.4,1.3,0.4,2.1c-0.1,0.9-0.2,1.8-0.5,2.5c-0.4,0.7-0.8,1.4-1.3,2.1
	c0.9,0.3,1.7,0.5,2.6,0.5c0.7,0,1.3-0.1,2-0.3c0.6-0.2,1.3-0.4,1.9-0.7c0,0.3-0.1,0.6-0.1,0.8c0,0.3,0,0.6-0.1,0.8
	c-0.1,0.1-0.5,0.3-1,0.5c-0.5,0.2-1.1,0.4-1.8,0.5c-0.6,0.2-1.3,0.3-2.1,0.4c-0.7,0.1-1.4,0.2-2.1,0.2c-0.2,0-0.5-0.1-0.8-0.2
	c-0.3-0.1-0.6-0.2-0.9-0.3c-1.8,1.3-3.8,2.2-6.1,2.9c-2.3,0.7-4.3,1-6.2,0.9H99.5z M83.9,154.1L83.9,154.1z M83.9,154.1
	c-1.6,2.6-3.2,5.4-4.8,8.1c-1.6,2.8-3.3,5.1-5,7c-0.8,0.9-1.8,1.6-2.9,2c-1,0.4-2.1,0.6-3.1,0.4c-1-0.2-1.9-0.6-2.7-1.4
	c-0.9-0.7-1.5-1.8-1.8-3.2c0.1-0.2,0.4-0.5,0.8-1c0.4-0.4,0.9-0.9,1.4-1.4s1-0.9,1.5-1.4c0.4-0.5,0.8-0.9,1.1-1.2
	c-0.1,0.4-0.1,1.1,0.1,1.8c0.1,0.8,0.3,1.5,0.6,2.2c0.4,0.8,0.8,1.3,1.3,1.7c0.6,0.5,1.2,0.6,1.9,0.3c0.9-0.6,1.7-1.4,2.6-2.4
	c0.9-1.1,1.7-2.2,2.6-3.5c0.8-1.3,1.7-2.6,2.4-4c0.8-1.4,1.5-2.7,2.2-4l-3.3,1l-0.9-0.7c0-0.1,0-0.3,0-0.3c0.9-0.4,2.1-0.8,3.7-1.2
	c1.6-0.5,3.2-0.9,4.8-1.3c1.6-0.4,3-0.7,4.3-1c1.2-0.3,1.9-0.5,2-0.6c-0.2,0.7-0.6,1.7-1,3.1c-0.5,1.4-1.1,2.9-1.7,4.4
	c-0.6,1.5-1.1,3-1.7,4.4c-0.6,1.5-1.1,2.6-1.4,3.4c-0.1,0.2-0.2,0.4-0.2,0.6c-0.1,0.3-0.1,0.5-0.1,0.7c0.1,0.6,0.3,0.9,0.9,0.9
	c1.3-0.1,2.6-0.5,3.9-1.3c1.3-0.7,2.3-1.3,3.1-1.7c0.2,0.5,0.3,0.8,0.4,0.9c0.1,0.1,0.3,0.3,0.4,0.6c-0.7,0.3-1.5,0.7-2.3,1.2
	c-0.8,0.4-1.6,0.9-2.4,1.3c-0.8,0.5-1.6,0.9-2.4,1.3c-0.9,0.3-1.6,0.6-2.2,0.9c-0.4,0.1-0.9,0.2-1.3,0.3c-0.5,0.2-1,0.3-1.5,0.3
	c-0.9,0.1-1.8-0.1-2.7-0.6c-0.9-0.4-1.3-1.1-1.4-2.2c0-0.4,0.1-0.7,0-0.9c0-0.2,0.1-0.5,0.2-0.9c0.9-2.6,1.7-4.7,2.3-6.1
	c0.6-1.5,1-2.6,1.3-3.5c0.3-0.7,0.5-1.3,0.7-1.7C83.7,155,83.9,154.6,83.9,154.1z M43.1,183.6L43.1,183.6z M43.1,183.6
	c0,0.3,0,0.5,0.1,0.8c0.2,0.2,0.3,0.3,0.6,0.3c0.3,0,0.7-0.2,1.1-0.5c0.4-0.4,0.8-0.8,1.1-1.3c0.4-0.5,0.8-1,1.1-1.4
	c0.3-0.5,0.5-0.9,0.6-1.1c0.5-1.4,1-2.6,1.5-3.7c0.4-1,0.8-1.8,1-2.6c-0.3,0.1-0.6,0.3-0.8,0.4c-0.3,0.1-0.5,0.2-0.7,0.4
	c-0.2,0-0.4,0.1-0.5,0.2c-1.4,0.8-2.6,2-3.6,3.6C43.5,180.3,43,181.9,43.1,183.6z M38.4,185.3L38.4,185.3z M38.4,185.3
	c0-1.3,0.3-2.6,0.8-3.7c0.5-1.2,1.2-2.2,2-3.2c0.9-1,1.8-1.8,2.9-2.6c1.1-0.7,2.2-1.4,3.4-2c0.7-0.4,1.6-0.8,2.5-1.3
	c0.9-0.4,1.5-0.9,1.6-1.5c0.2-0.4,0.4-1,0.7-1.6c0.2-0.6,0.5-1.2,0.8-1.9c0.3-0.6,0.5-1.2,0.8-1.8s0.5-1.2,0.6-1.6
	c-0.3,0.3-0.9,0.8-1.8,1.4c-0.8,0.6-1.7,1.3-2.7,2c-0.9,0.7-1.9,1.3-2.7,1.9c-0.9,0.6-1.5,1-1.8,1.2c-0.9,0.5-1.7,0.9-2.4,1.2
	c-0.7,0.3-1.6,0.4-2.6,0.4c-0.9,0.1-1.4-0.2-1.7-0.7c-0.3-0.6-0.5-1.1-0.5-1.9c0-0.7,0.1-1.4,0.3-1.9c0.4-1,0.9-2.3,1.6-3.9
	c0.6-1.6,1.3-3.2,1.9-4.7c0.7-1.6,1.3-2.9,1.7-4.1c0.5-1.1,0.8-1.8,0.8-2.1l7.5-1.1c-0.5,1.2-0.9,2.4-1.4,3.6s-1,2.4-1.5,3.5
	c-0.5,1.1-0.9,2.1-1.3,3c-0.5,0.9-0.8,1.8-1.1,2.4c-0.1,0.5-0.3,0.9-0.4,1.4c-0.2,0.4-0.2,0.8-0.2,1.1c0,0.3,0.1,0.5,0.4,0.5
	c0.2,0,0.3,0,0.4-0.1c0.1,0,0.3-0.1,0.5-0.2c0.6-0.3,1.2-0.6,1.8-1c0.6-0.4,1.1-0.7,1.5-1l0.2-0.2c0.1,0,0.4-0.2,0.8-0.5
	c0.4-0.4,0.9-0.7,1.3-1.1c0.5-0.3,1-0.7,1.4-1c0.4-0.3,0.7-0.6,0.9-0.8s0.4-0.5,0.7-1c0.2-0.4,0.4-0.9,0.6-1.4
	c0.3-0.5,0.5-0.9,0.6-1.3c0.2-0.4,0.3-0.7,0.3-0.9c0.5-0.1,1.2-0.2,1.9-0.4c0.8-0.2,1.5-0.4,2.2-0.7c0.7-0.2,1.4-0.4,2-0.6
	c0.6-0.1,1.1-0.3,1.5-0.3c-1,2.2-1.9,4.5-2.8,6.8c-0.9,2.2-1.9,4.5-2.9,6.7c0.5-0.1,1.1-0.3,1.9-0.5c0.7-0.3,1.5-0.6,2.2-0.9
	c0.8-0.3,1.5-0.6,2.1-0.9s1.2-0.6,1.6-0.8c0,0.2,0,0.5,0,0.8c0,0.2-0.1,0.5-0.1,0.8c-0.9,0.4-2.1,1.1-3.7,1.8
	c-1.6,0.8-3.2,1.4-4.8,1.7c-0.2,0.4-0.5,1.1-0.9,2.2c-0.4,1-0.8,2-1.2,2.8c-0.5,0.9-1,1.9-1.6,3.1c-0.6,1.3-1.2,2.2-1.9,3
	c-0.8,0.8-1.7,1.5-2.7,2.3c-0.9,0.7-2,1.4-3.1,1.9c-1.2,0.6-2.3,1.1-3.5,1.4c-1.2,0.3-2.4,0.5-3.5,0.5c-0.7,0.1-1.2-0.2-1.5-0.6
	C38.6,186.5,38.5,185.9,38.4,185.3z M27.5,166L27.5,166z M27.5,166c0.2,1.1,0.7,1.9,1.5,2.6c0.7,0.6,1.7,0.9,3,0.8
	c0.5,0,1.2-0.1,2-0.3c0.8-0.3,1.6-0.6,2.4-1c0.8-0.3,1.6-0.7,2.4-1.1c0.7-0.4,1.4-0.7,1.9-1c0.1,0.3,0.3,0.6,0.5,0.8
	c0.1,0.3,0.3,0.5,0.3,0.6c-0.3,0.3-1,0.7-1.9,1.3c-1,0.5-2.1,1.1-3.4,1.6c-1.3,0.6-2.7,1-4.1,1.4s-2.7,0.7-3.9,0.7
	c-1.5,0-2.7-0.1-3.6-0.3c-0.9-0.3-1.7-0.7-2.3-1.3c-0.6-0.5-1.1-1.3-1.5-2.2c-0.4-0.9-0.8-2-1.2-3.3c-1,1.2-1.9,2.4-2.7,3.5
	c-0.8,1.1-1.4,2.1-2,2.8c-0.3,0.1-0.8,0.1-1.5,0.3c-0.7,0.1-1.5,0.2-2.3,0.3c-0.8,0.1-1.5,0.3-2.2,0.3c-0.8,0.2-1.3,0.2-1.6,0.2
	l8.3-19.8l7.5-1c-0.9,2.4-1.9,4.6-2.9,6.5c-1,1.8-1.9,3.8-2.8,5.9c1.4-1.5,2.7-3.1,3.9-4.7c1.2-1.6,2.5-3.1,3.8-4.4
	c1.3-1.3,2.8-2.3,4.4-3.1c1.7-0.8,3.6-1.2,5.8-1.1l-0.2,6.3c-1.5-0.4-3-0.5-4.4-0.2c-1.3,0.4-2.7,0.9-3.9,1.7
	c-1.3,0.7-2.5,1.6-3.6,2.6c-1.1,1.1-2.2,2.2-3.1,3.3c0.1-0.1,0.3-0.2,0.6-0.3c0.3-0.1,0.6-0.3,1.1-0.5s1.1-0.4,1.8-0.7
	c0.7-0.3,1.6-0.7,2.6-1.2L27.5,166z"/>
<path class="st0" d="M41,126.3c-1.2-0.2-6.4-0.9-7.7-1.1c-7-1.1-27-5.3-29.3-13.2c-1.6-5.7,15.1-1.9,17.5-0.9
	C27,113.3,38.9,120.1,41,126.3z M114.2,102.5L114.2,102.5z M114.2,102.5c-4.5,1.6-55.5,17.3-37.9-6c24-22.2,109.5-32.2,100-11.2
	c-3.8,13.3-44,28.1-56,32.2c-26.6,9.1-51.9,9.1-63.1,9.5h-0.7c-3.8,0.1-8.9-0.1-14.4-0.7c-0.2-1.4-0.7-2.8-1.5-4.3
	c-2.5-4.5-8.3-9.1-17.2-12.6c-8.5-3.3-13.9-3.4-17-2c-1.7,0.8-2.7,2.1-3.2,3.6c-0.5,1.4-0.5,2.9,0,4.5c3,10.8,20.1,13,29.4,14.4
	c1.1,0.2,2.1,0.3,3.2,0.5c-0.1,0.1,3.8,0.4,3.7,0.5c-2.7,4.4-5,7.2-8.9,10.9c-4.6,4.4-9.9,7.2-15,11.2l7.5-1c1.1-1.1,6.5-4.9,10-9
	c4.2-4.9,6.6-10.3,7.7-12.3c5.9,0.6,11.9,1.2,15.9,1.1h0.6c11.5-0.4,37.9-1.2,65.2-10.6c14.1-4.8,26.9-11,36.5-17.2
	c9.8-6.4,16.4-13.1,17.5-18.7c0.1-0.7,0.2-1.4,0.1-2c-3.2-23.7-59.5-9.7-75.5-4.2c-12,4.1-23.8,11.4-27.6,15.4
	c-2.4,2.4-3.6,4.8-4,6.9C65.3,120.7,107.6,104.8,114.2,102.5z"/>
<path class="st0" d="M217.4,113.6c9.4,4.1,52,1.1,53.8,2c0.5,1.6-0.1,15,23.2,14.6c-1.2,1.7-8.5,1.5-9.5,1.4
	c-10.2-1.5-13.4-8.4-12.6-17.9c-1.3,2.3-22.6,1.5-26,1.5C242.2,115.2,219.5,113,217.4,113.6z"/>
<path class="st1" d="M217.4,113.6c9.4,4.1,52,1.1,53.8,2c0.5,1.6-0.1,15,23.2,14.6c-1.2,1.7-8.5,1.5-9.5,1.4
	c-10.2-1.5-13.4-8.4-12.6-17.9c-1.3,2.3-22.6,1.5-26,1.5C242.2,115.2,219.5,113,217.4,113.6z"/>
<path class="st0" d="M358.1,205.4c3.4-7.9,10.6-39.3,12.1-48.7c0.3-1.7,2.4-25.2,0.9-25.2c-1.6,11.8-3.1,30-5.5,41.6
	c-0.6,3-7.7,40.1-7.6,40.1L358.1,205.4z"/>
<path class="st1" d="M358.1,205.4c3.4-7.9,10.6-39.3,12.1-48.7c0.3-1.7,2.4-25.2,0.9-25.2c-1.6,11.8-3.1,30-5.5,41.6
	c-0.6,3-7.7,40.1-7.6,40.1L358.1,205.4z"/>
<path class="st0" d="M392,52.8c2,2.4,6.9,5.9,9.5,8.2c4.2,3.8,26,23.5,28,26.6c-0.7-6.3-20.9-22.4-27.2-27.5c-3-2.3-7-6-10.2-7.8
	C391.7,52.5,391.6,52,392,52.8z"/>
<path class="st1" d="M392,52.8c2,2.4,6.9,5.9,9.5,8.2c4.2,3.8,26,23.5,28,26.6c-0.7-6.3-20.9-22.4-27.2-27.5c-3-2.3-7-6-10.2-7.8
	C391.7,52.5,391.6,52,392,52.8z"/>
<path class="st0" d="M294.4,130.2c7.2,13.4,46.3,15.2,46.6,13.7c-4.5-0.7-9-0.8-13.6-1.6C315.1,140.1,304.6,137.7,294.4,130.2z"/>
<path class="st1" d="M294.4,130.2c7.2,13.4,46.3,15.2,46.6,13.7c-4.5-0.7-9-0.8-13.6-1.6C315.1,140.1,304.6,137.7,294.4,130.2z"/>
<path class="st0" d="M422.7,99.5c-2.4,1.4-6.5,5.1-9.3,7c-3.2,2.2-6.5,4.4-9.9,6.5c-6.7,4.1-13.8,7.8-20.3,11.8l-0.5,0.7
	c7.6-2.7,16.1-7.5,22.9-11.8c3.8-2.4,17.2-11.5,18.7-15.1l0.2-0.5L422.7,99.5z"/>
<path class="st1" d="M422.7,99.5c-2.4,1.4-6.5,5.1-9.3,7c-3.2,2.2-6.5,4.4-9.9,6.5c-6.7,4.1-13.8,7.8-20.3,11.8l-0.5,0.7
	c7.6-2.7,16.1-7.5,22.9-11.8c3.8-2.4,17.2-11.5,18.7-15.1l0.2-0.5L422.7,99.5z"/>
<path class="st0" d="M380.5,57.1c-0.5,0-0.4-0.1-0.4,0.5c1.4,3.6,8.9,13.4,11.6,16.9c3.8,4.8,11.4,13.3,17.4,15
	C399.2,81.6,388.5,66.9,380.5,57.1z"/>
<path class="st1" d="M380.5,57.1c-0.5,0-0.4-0.1-0.4,0.5c1.4,3.6,8.9,13.4,11.6,16.9c3.8,4.8,11.4,13.3,17.4,15
	C399.2,81.6,388.5,66.9,380.5,57.1z"/>
<path class="st0" d="M309.3,97.1l-0.5-0.3v0.3c1.3,5.6,11,14.3,19.4,16.1c1.8,0.4,10.7,1.7,11.6,0.6c-0.1-0.1-9.6-1.7-11.1-2.2
	c-2.8-0.9-5.2-2.1-7.7-3.6C313.6,103.6,312.6,99.9,309.3,97.1z"/>
<path class="st1" d="M309.3,97.1l-0.5-0.3v0.3c1.3,5.6,11,14.3,19.4,16.1c1.8,0.4,10.7,1.7,11.6,0.6c-0.1-0.1-9.6-1.7-11.1-2.2
	c-2.8-0.9-5.2-2.1-7.7-3.6C313.6,103.6,312.6,99.9,309.3,97.1z"/>
<path class="st0" d="M353.6,33.4c0.9,0.6,0.7,0.6,0.9,1.9c-0.4,1.6,2.9,6.8,3.9,8.1c-0.8-6.1-9.7-25.5-6.9-30.2
	c3.2-1.2,8,3.9,9.9,6.8c0.3-3.5-9.2-9.7-11.2-8.4C347.2,14.8,352,29.3,353.6,33.4z"/>
<path class="st1" d="M353.6,33.4c0.9,0.6,0.7,0.6,0.9,1.9c-0.4,1.6,2.9,6.8,3.9,8.1c-0.8-6.1-9.7-25.5-6.9-30.2
	c3.2-1.2,8,3.9,9.9,6.8c0.3-3.5-9.2-9.7-11.2-8.4C347.2,14.8,352,29.3,353.6,33.4z"/>
<path class="st0" d="M342.5,212.1c0.4-1.5-1.3-30.9-1.4-34.9c-0.1-5.2-0.3-10.5-0.2-15.7c0-1.3,0.2-17.6,0-17.6
	c-1.6,0.5-0.8,30.6-0.8,33.3c0,2.5,1.6,28.2,2.1,30.7L342.5,212.1z"/>
<path class="st1" d="M342.5,212.1c0.4-1.5-1.3-30.9-1.4-34.9c-0.1-5.2-0.3-10.5-0.2-15.7c0-1.3,0.2-17.6,0-17.6
	c-1.6,0.5-0.8,30.6-0.8,33.3c0,2.5,1.6,28.2,2.1,30.7L342.5,212.1z"/>
<path class="st0" d="M341,111.8l0.4,0.2c0.7-1.1,0.4-0.8,1.2-1.5c2.6-4.1,6.6-6.6,11.4-7.6c3.1-0.6,5.8-0.7,8.9-0.4
	c1.8,0.2,6.8,1.7,7.8,1.6c-2.1-2.2-12.4-4.4-17.5-3.3C347.4,102,342.1,107.3,341,111.8z"/>
<path class="st1" d="M341,111.8l0.4,0.2c0.7-1.1,0.4-0.8,1.2-1.5c2.6-4.1,6.6-6.6,11.4-7.6c3.1-0.6,5.8-0.7,8.9-0.4
	c1.8,0.2,6.8,1.7,7.8,1.6c-2.1-2.2-12.4-4.4-17.5-3.3C347.4,102,342.1,107.3,341,111.8z"/>
<path class="st0" d="M350.6,270.9c3.3-7.7,7.7-34.4,8.1-43.7c0-1.3,0.2-14.3-0.6-14.2c-0.5,1.7-0.3,11.1-0.5,14
	c-0.3,4.4-0.7,8.5-1.2,12.9L350.6,270.9z"/>
<path class="st1" d="M350.6,270.9c3.3-7.7,7.7-34.4,8.1-43.7c0-1.3,0.2-14.3-0.6-14.2c-0.5,1.7-0.3,11.1-0.5,14
	c-0.3,4.4-0.7,8.5-1.2,12.9L350.6,270.9z"/>
<path class="st0" d="M338.8,264.3c0.7-1.1,5.1-52.8,3.7-52.2c-1.3,7.9-1.4,18.2-2.1,26.5C340.2,241,338.2,263.8,338.8,264.3z"/>
<path class="st1" d="M338.8,264.3c0.7-1.1,5.1-52.8,3.7-52.2c-1.3,7.9-1.4,18.2-2.1,26.5C340.2,241,338.2,263.8,338.8,264.3z"/>
<path class="st0" d="M370.5,104.1l26.3-9.4c2.2-0.7,10.7-4.4,12.3-5.3C405.1,88.1,373.5,100.9,370.5,104.1z"/>
<path class="st1" d="M370.5,104.1l26.3-9.4c2.2-0.7,10.7-4.4,12.3-5.3C405.1,88.1,373.5,100.9,370.5,104.1z"/>
<path class="st0" d="M171.3,102c16.9,0.7,24.4,1,37.6,1.2c2.7,0.1,20.6,1.2,21.2,1C226.3,100.7,180.2,102.8,171.3,102z"/>
<path class="st1" d="M171.3,102c16.9,0.7,24.4,1,37.6,1.2c2.7,0.1,20.6,1.2,21.2,1C226.3,100.7,180.2,102.8,171.3,102z"/>
<path class="st0" d="M316.2,274.2c-19.5,12.1,17.9,13.6,22.4,10.4l-16.9-0.1C311.5,282.5,311.8,277.8,316.2,274.2z"/>
<path class="st1" d="M316.2,274.2c-19.5,12.1,17.9,13.6,22.4,10.4l-16.9-0.1C311.5,282.5,311.8,277.8,316.2,274.2z"/>
<path class="st0" d="M291.6,84.4c1.1-0.2,15.2-15.3,16.9-16.9c2.1-1.9,14.3-12.3,14.9-13.7C319.4,55.7,293.1,80.8,291.6,84.4z"/>
<path class="st1" d="M291.6,84.4c1.1-0.2,15.2-15.3,16.9-16.9c2.1-1.9,14.3-12.3,14.9-13.7C319.4,55.7,293.1,80.8,291.6,84.4z"/>
<path class="st0" d="M170.7,107.5c4.5,2,40.3,8.4,46.8,6.2v-0.2c-0.1-0.2-8.8-0.7-9.6-0.7c-3.3-0.3-6.3-0.8-9.5-1.2
	C196.4,111.4,171.5,107.9,170.7,107.5z"/>
<path class="st1" d="M170.7,107.5c4.5,2,40.3,8.4,46.8,6.2v-0.2c-0.1-0.2-8.8-0.7-9.6-0.7c-3.3-0.3-6.3-0.8-9.5-1.2
	C196.4,111.4,171.5,107.9,170.7,107.5z"/>
<path class="st0" d="M258.8,52.9l-2.3,4l4.6-4.2c0.8,0.1,2.7-1.5,4.6-1.5c3.7-0.8,7.1,0.7,10.3,2.7c1,0.7,2.8,1.9,3.7,2
	c1.1,1.8,2.2,4.3,3.5,5.5l-2-5.1c0.1-2.2-6.3-5.5-8.3-6.1C269.6,49.2,262.6,49.3,258.8,52.9z"/>
<path class="st1" d="M258.8,52.9l-2.3,4l4.6-4.2c0.8,0.1,2.7-1.5,4.6-1.5c3.7-0.8,7.1,0.7,10.3,2.7c1,0.7,2.8,1.9,3.7,2
	c1.1,1.8,2.2,4.3,3.5,5.5l-2-5.1c0.1-2.2-6.3-5.5-8.3-6.1C269.6,49.2,262.6,49.3,258.8,52.9z"/>
<path class="st0" d="M305.6,87.5C308,86.5,328.4,64,330,61c-1.6,0.4-11,11.6-12.8,13.6C315.3,76.7,306.3,85.9,305.6,87.5z"/>
<path class="st1" d="M305.6,87.5C308,86.5,328.4,64,330,61c-1.6,0.4-11,11.6-12.8,13.6C315.3,76.7,306.3,85.9,305.6,87.5z"/>
<path class="st0" d="M230.1,104.2c1.7-1.1,34.6-2.4,34.5-1c-1.9-1.4-12.5-1.5-15.5-1.4C246.7,101.8,231.2,103.3,230.1,104.2z"/>
<path class="st1" d="M230.1,104.2c1.7-1.1,34.6-2.4,34.5-1c-1.9-1.4-12.5-1.5-15.5-1.4C246.7,101.8,231.2,103.3,230.1,104.2z"/>
<path class="st0" d="M354.6,35.3c-0.2-1.3,0-1.3-1-2l-0.3,1.1c-7.6,3.8-23.8,24.5-22.8,26.2c1.1-1,7.2-10.6,11.1-14.4
	c4-3.8,7.4-8.2,12-11.5L354.6,35.3z"/>
<path class="st1" d="M354.6,35.3c-0.2-1.3,0-1.3-1-2l-0.3,1.1c-7.6,3.8-23.8,24.5-22.8,26.2c1.1-1,7.2-10.6,11.1-14.4
	c4-3.8,7.4-8.2,12-11.5L354.6,35.3z"/>
<path class="st0" d="M350.6,270.9c1.6,2.9,6.7,6.5,6.7,9.8c0.1,5.5-15.8,3.6-18.8,3.9c1.9,0.2,14.4,1.8,16.2,1.1
	c2.5-0.9,4-2.1,3.9-4.9C358.4,276.5,352.6,274,350.6,270.9z"/>
<path class="st1" d="M350.6,270.9c1.6,2.9,6.7,6.5,6.7,9.8c0.1,5.5-15.8,3.6-18.8,3.9c1.9,0.2,14.4,1.8,16.2,1.1
	c2.5-0.9,4-2.1,3.9-4.9C358.4,276.5,352.6,274,350.6,270.9z"/>
<path class="st0" d="M323.3,53.9c2.4-1.2,27-24.6,28.2-27c-1.8,0.5-13,11.4-15.2,13.2c-1.7,1.4-3.9,4.1-5.7,5.8
	C329.3,47.2,323.6,52.3,323.3,53.9z"/>
<path class="st1" d="M323.3,53.9c2.4-1.2,27-24.6,28.2-27c-1.8,0.5-13,11.4-15.2,13.2c-1.7,1.4-3.9,4.1-5.7,5.8
	C329.3,47.2,323.6,52.3,323.3,53.9z"/>
<path class="st0" d="M288.9,80.7c1.4,0,3.5-1.7,4.3-2.8c6.7-9.9-6.3-13.4-7.8-13.4c4.6,2.4,10,4.6,6.3,12.5
	C290.9,79.1,289.5,79.6,288.9,80.7z"/>
<path class="st1" d="M288.9,80.7c1.4,0,3.5-1.7,4.3-2.8c6.7-9.9-6.3-13.4-7.8-13.4c4.6,2.4,10,4.6,6.3,12.5
	C290.9,79.1,289.5,79.6,288.9,80.7z"/>
<path class="st0" d="M253.6,86.6c0.1-0.2-1.6-16.1-0.8-18.8c0.5-4.4,1.2-6.4,3.2-10.3C250,63.7,252,85.6,253.6,86.6z"/>
<path class="st1" d="M253.6,86.6c0.1-0.2-1.6-16.1-0.8-18.8c0.5-4.4,1.2-6.4,3.2-10.3C250,63.7,252,85.6,253.6,86.6z"/>
<path class="st0" d="M375.3,52.1c-2.4,0.5-11.1,7.7-14.8,6.6c-4.2-1.3-1.5-14.6-2.3-16.2c-1.7,1.9-1.8,16.1,1.2,17.4
	C362.1,61.1,374.6,54,375.3,52.1z"/>
<path class="st1" d="M375.3,52.1c-2.4,0.5-11.1,7.7-14.8,6.6c-4.2-1.3-1.5-14.6-2.3-16.2c-1.7,1.9-1.8,16.1,1.2,17.4
	C362.1,61.1,374.6,54,375.3,52.1z"/>
<path class="st0" d="M323.7,265h1c-0.3-1.5-0.4-1.7,0.2-3.1c2.2-0.8,3.6-0.3,4.8,1.4c0.8,3.3-0.9,3.2-1,4.8c1.8-1,3.6-4.5,1.4-6.4
	c-1.7-1.5-5-2.7-6.8-0.9C323.1,262.7,323.3,263.2,323.7,265z"/>
<path class="st1" d="M323.7,265h1c-0.3-1.5-0.4-1.7,0.2-3.1c2.2-0.8,3.6-0.3,4.8,1.4c0.8,3.3-0.9,3.2-1,4.8c1.8-1,3.6-4.5,1.4-6.4
	c-1.7-1.5-5-2.7-6.8-0.9C323.1,262.7,323.3,263.2,323.7,265z"/>
<path class="st0" d="M373.9,35.8c-1-0.7-0.7-0.7-0.8-0.1c1.7,5.8,8.2,3.1,8.1-0.5c-1.1-1.4-4.5-1.9-6-1.3c0.7,1.4,3.9,0.2,4.8,2.2
	c-0.6,1.1-1.9,1.8-3.1,1.7C375.4,37.6,374.9,36.1,373.9,35.8z"/>
<path class="st1" d="M373.9,35.8c-1-0.7-0.7-0.7-0.8-0.1c1.7,5.8,8.2,3.1,8.1-0.5c-1.1-1.4-4.5-1.9-6-1.3c0.7,1.4,3.9,0.2,4.8,2.2
	c-0.6,1.1-1.9,1.8-3.1,1.7C375.4,37.6,374.9,36.1,373.9,35.8z"/>
<path class="st0" d="M373.1,35.8c0.2-0.7-0.2-0.6,0.8,0c-2.7-5.8-0.2-1.6-1-3.6c-1.3-1.5-3.5-4.1-2.8-6.1c2.2-1.4,3.1,5.2,3.7,6.2
	c1.1-1.9-1.2-7.9-4-7.6c-2.2,2-0.5,4,0.8,5.8C373.4,34.1,371,33.6,373.1,35.8z"/>
<path class="st1" d="M373.1,35.8c0.2-0.7-0.2-0.6,0.8,0c-2.7-5.8-0.2-1.6-1-3.6c-1.3-1.5-3.5-4.1-2.8-6.1c2.2-1.4,3.1,5.2,3.7,6.2
	c1.1-1.9-1.2-7.9-4-7.6c-2.2,2-0.5,4,0.8,5.8C373.4,34.1,371,33.6,373.1,35.8z"/>
<path class="st0" d="M317.6,271.3l-0.7-0.5c0.7-1.5,0.4-0.7,0.3-1.3l-1,0.4l-1.1,0.5c0.2,1.4,0.7,1.6,2.1,2.3
	c2.4,1.1,7.9,2.4,7.7-2.4C322.9,274.9,319.9,271.8,317.6,271.3z"/>
<path class="st1" d="M317.6,271.3l-0.7-0.5c0.7-1.5,0.4-0.7,0.3-1.3l-1,0.4l-1.1,0.5c0.2,1.4,0.7,1.6,2.1,2.3
	c2.4,1.1,7.9,2.4,7.7-2.4C322.9,274.9,319.9,271.8,317.6,271.3z"/>
<path class="st0" d="M316.2,269.9l1-0.3c0.1,0.6,0.4-0.3-0.3,1.3l0.7,0.4v-1.1c2.6-1,5-1.1,7.7-1.3c1.3,1,0.2,0.4,1.3,0.6
	c-0.1-0.7-1.5-4-1.9-4.5h-0.9l1.1,3.2C323,268.4,317.5,268.4,316.2,269.9z"/>
<path class="st1" d="M316.2,269.9l1-0.3c0.1,0.6,0.4-0.3-0.3,1.3l0.7,0.4v-1.1c2.6-1,5-1.1,7.7-1.3c1.3,1,0.2,0.4,1.3,0.6
	c-0.1-0.7-1.5-4-1.9-4.5h-0.9l1.1,3.2C323,268.4,317.5,268.4,316.2,269.9z"/>
<path class="st0" d="M392,52.8c-0.4-0.8-0.2-0.2,0.2-0.5c-0.7-1.1-10-8.8-11.3-9.4c0.1,1.4,5.8,5.8,6.9,6.8
	C389,50.8,390.6,52.4,392,52.8z"/>
<path class="st1" d="M392,52.8c-0.4-0.8-0.2-0.2,0.2-0.5c-0.7-1.1-10-8.8-11.3-9.4c0.1,1.4,5.8,5.8,6.9,6.8
	C389,50.8,390.6,52.4,392,52.8z"/>
<path class="st0" d="M253.6,86.6c1.9,1.9,11.3-0.3,12.1-4c-1.2,1.7-3.6,2.9-6.2,3.8C257.4,87,254.7,86.2,253.6,86.6z"/>
<path class="st1" d="M253.6,86.6c1.9,1.9,11.3-0.3,12.1-4c-1.2,1.7-3.6,2.9-6.2,3.8C257.4,87,254.7,86.2,253.6,86.6z"/>
<path class="st0" d="M422.7,99.5l1.8-1.4l-0.2,0.6c1.3-0.7,6.3-7.4,5.6-10.5c-0.8,1.2-4.2,7.9-5,8.7C424,97.8,423.1,98.6,422.7,99.5
	z"/>
<path class="st1" d="M422.7,99.5l1.8-1.4l-0.2,0.6c1.3-0.7,6.3-7.4,5.6-10.5c-0.8,1.2-4.2,7.9-5,8.7C424,97.8,423.1,98.6,422.7,99.5
	z"/>
<path class="st0" d="M380.1,57.6c0.1-0.6-0.1-0.5,0.5-0.5c-0.4-1.1-3.7-5.4-4.7-5.5C376.1,52.8,379.2,56.9,380.1,57.6z"/>
<path class="st1" d="M380.1,57.6c0.1-0.6-0.1-0.5,0.5-0.5c-0.4-1.1-3.7-5.4-4.7-5.5C376.1,52.8,379.2,56.9,380.1,57.6z"/>
<path class="st0" d="M382.3,125.5l0.9-0.7c-1.1,0.4-11.8,5.7-12.2,6.8C372.4,131.7,384.8,124.7,382.3,125.5z"/>
<path class="st1" d="M382.3,125.5l0.9-0.7c-1.1,0.4-11.8,5.7-12.2,6.8C372.4,131.7,384.8,124.7,382.3,125.5z"/>
<path class="st0" d="M341.5,111.2c-1.1,0.9-1.4,2.8-1.3,4.3l2.5-5c-0.9,0.6-0.6,0.4-1.3,1.4L341.5,111.2z"/>
<path class="st1" d="M341.5,111.2c-1.1,0.9-1.4,2.8-1.3,4.3l2.5-5c-0.9,0.6-0.6,0.4-1.3,1.4L341.5,111.2z"/>
<path class="st0" d="M283.6,61.4h-0.9c0.7,1.2,1,2.5,2.1,2.5C284.6,62.9,284.3,62,283.6,61.4z"/>
<path class="st1" d="M283.6,61.4h-0.9c0.7,1.2,1,2.5,2.1,2.5C284.6,62.9,284.3,62,283.6,61.4z"/>
<path class="st0" d="M308.8,97.1v-0.2l0.6,0.2l-3.9-9.6C305,88.6,308,96.3,308.8,97.1z"/>
<path class="st1" d="M308.8,97.1v-0.2l0.6,0.2l-3.9-9.6C305,88.6,308,96.3,308.8,97.1z"/>
<path class="st0" d="M287.2,196.6c0-2.9,0.6-5.4,1.9-7.4c1.3-2,2.9-4,4.9-5.9s4.2-3.1,6.7-3.7c2.5-0.7,5.1-1.1,7.8-1.1
	c1.9,0,3.9,0.2,5.9,0.6c2,0.4,3.4,1.3,4.2,2.7c-0.3,0.2-0.9,0.3-1.6,0.5c-0.7,0.2-1.4,0.3-2.2,0.5c-0.8,0.2-1.6,0.4-2.3,0.5
	c-0.7,0.2-1.3,0.3-1.7,0.4c-0.2-0.4-0.4-0.9-0.7-1.6c-0.3-0.6-0.9-0.9-1.7-0.9c-1.1,0-2.2,0.5-3.6,1.4c-1.3,0.9-2.6,2-3.8,3.3
	c-1.2,1.4-2.2,2.8-3,4.4c-0.8,1.5-1.2,2.8-1.2,4.1c0,0.5,0.2,1.1,0.5,1.6c0.3,0.5,0.9,0.8,1.8,0.8c1.4-0.1,2.8-0.6,4.2-1.7
	s2.6-2.4,3.7-3.9c0.8-1,1.5-1.9,1.9-2.7c0.5-0.8,0.9-1.6,1.4-2.6l0.3-0.6c1.2-0.2,2.6-0.5,4.2-0.9c1.6-0.4,2.9-0.6,4.1-0.9
	c-0.3,0.7-0.7,1.6-1.2,2.6s-0.9,2-1.4,3.1c-0.4,1-0.8,2.1-1.3,3.1c-0.4,0.9-0.8,1.8-1.1,2.6c-0.1,0.3-0.2,0.7-0.3,1
	c-0.2,0.3-0.2,0.7-0.2,1c0,0.8,0.4,1.1,1.3,1.1c0.4,0,1.1-0.1,1.9-0.5c0.9-0.2,1.7-0.6,2.5-1c0.9-0.3,1.7-0.7,2.4-1.1
	c0.7-0.4,1.2-0.7,1.6-0.9c-0.1,0.7-0.1,1.1-0.1,1.2s-0.1,0.4-0.2,1c-0.5,0.5-1.3,1-2.4,1.7c-1.1,0.7-2.3,1.3-3.6,1.9
	c-1.3,0.6-2.7,1.1-4.1,1.5c-1.4,0.5-2.6,0.7-3.6,0.7c-1.1,0.1-2-0.3-2.7-0.9c-0.8-0.6-1.1-1.6-1.2-2.9c0-0.5,0.1-0.9,0.2-1.3
	c0.1-0.3,0.2-0.9,0.4-1.7h-0.3c-0.8,0.7-1.7,1.4-2.5,2.2c-0.8,0.8-1.7,1.6-2.7,2.3c-0.9,0.7-1.9,1.3-3,1.8s-2.4,0.8-3.8,0.8
	c-2.2,0.1-3.8-0.4-4.7-1.5C287.8,200.3,287.2,198.8,287.2,196.6z M275.2,182.5L275.2,182.5z M275.2,182.5c-2,3.2-3.9,6.5-5.8,9.8
	c-2,3.3-3.9,6.1-6,8.4c-1,1.1-2.1,1.9-3.4,2.4c-1.3,0.5-2.6,0.6-3.8,0.4c-1.2-0.2-2.3-0.7-3.3-1.6c-1-0.9-1.7-2.2-2.1-3.8
	c0.2-0.3,0.5-0.7,1-1.2c0.5-0.6,1-1.1,1.6-1.7c0.6-0.6,1.2-1.2,1.8-1.8c0.5-0.6,1-1,1.4-1.4c-0.1,0.5-0.1,1.3,0,2.2s0.4,1.8,0.8,2.7
	c0.4,0.8,0.9,1.5,1.6,2.1c0.6,0.5,1.4,0.6,2.3,0.2c1-0.7,2-1.7,3-2.9c1.1-1.2,2.1-2.6,3.2-4.1c1-1.6,1.9-3.2,2.9-4.9
	c0.9-1.6,1.8-3.3,2.6-4.8l-3.9,1.2l-1.2-0.8c0-0.2,0-0.3,0.1-0.4c1-0.4,2.5-0.9,4.4-1.4c1.9-0.6,3.9-1.1,5.8-1.6
	c1.9-0.4,3.6-0.9,5.1-1.2c1.5-0.4,2.3-0.6,2.5-0.7c-0.3,0.8-0.7,2.1-1.3,3.7c-0.6,1.7-1.2,3.5-2,5.3c-0.7,1.8-1.4,3.6-2.1,5.3
	c-0.7,1.7-1.3,3.1-1.7,4.1c-0.1,0.2-0.2,0.5-0.2,0.7c0,0.3,0,0.6,0,0.8c0,0.8,0.3,1.1,0.9,1.1c1.7-0.1,3.3-0.6,4.8-1.5
	c1.5-1,2.7-1.6,3.8-2.1c0.2,0.6,0.3,0.9,0.4,1.1c0.2,0.1,0.4,0.4,0.5,0.7c-0.8,0.4-1.8,0.9-2.7,1.4c-1,0.6-2,1.2-3,1.7
	s-1.9,1-2.9,1.4c-1,0.5-1.8,0.9-2.6,1.1c-0.5,0.2-1.1,0.3-1.6,0.5c-0.6,0.2-1.2,0.3-1.8,0.4c-1.1,0-2.2-0.3-3.2-0.8
	c-1.1-0.5-1.7-1.4-1.7-2.7c0-0.5,0-0.8,0-1c0-0.3,0.1-0.6,0.2-1.2c1.2-3.1,2.1-5.6,2.8-7.3c0.7-1.8,1.2-3.1,1.6-4.1
	c0.3-0.9,0.6-1.6,0.8-2.2C275,183.6,275.1,183.1,275.2,182.5z M233.5,195.7L233.5,195.7z M233.5,195.7c0.1,0.1,0.1,0.2,0.2,0.2
	c0.1,0.1,0.2,0.1,0.4,0.1c1.1-0.4,2.2-0.9,3.1-1.5c0.9-0.6,1.8-1.2,2.8-2c1.5-1.2,2.7-2.6,3.8-4.2c1-1.6,1.5-3.3,1.5-5.2
	c0-0.7-0.3-1-0.9-1c-0.1,0-0.2,0-0.3,0c-0.1,0.1-0.2,0.1-0.4,0.1c-1,0.2-2.2,0.9-3.4,2c-1.1,1.1-2.2,2.3-3.3,3.8
	c-1,1.4-1.8,2.8-2.5,4.2C233.8,193.7,233.5,194.8,233.5,195.7z M223.7,197.3L223.7,197.3z M223.7,197.3c-0.1-2.3,0.6-4.5,2.1-6.6
	s3.3-4,5.6-5.6c2.2-1.6,4.6-3,7.1-3.9c2.6-1.1,4.9-1.6,7-1.6c2-0.1,3.8,0.3,5.3,1.1s2.3,2.4,2.3,4.7c0,1.4-0.5,2.7-1.7,3.9
	c-1.1,1.2-2.5,2.2-4,3.1c-1.5,0.9-3.1,1.7-4.7,2.4c-1.6,0.7-2.9,1.2-3.8,1.6c-0.1,0.1-0.4,0.2-0.9,0.3c-0.5,0.2-1,0.4-1.6,0.6
	c-0.6,0.1-1.1,0.3-1.6,0.4c-0.5,0.2-0.9,0.4-1.1,0.4c-0.1,0.2-0.1,0.5-0.1,1c0,0.4,0.2,0.6,0.5,0.9c0.3,0.2,0.7,0.3,1.1,0.4
	c0.5,0.1,0.9,0.2,1.4,0.1c0.5,0,0.9,0,1.2,0c0.9,0,2-0.2,3.2-0.5c1.1-0.3,2.3-0.8,3.6-1.2c1.2-0.5,2.4-1,3.5-1.5
	c1.1-0.6,2.2-1,3-1.3c0.1,0.3,0.2,0.6,0.2,0.9c0.1,0.2,0.1,0.6,0.1,0.9c-1.3,0.6-2.8,1.4-4.5,2.1c-1.6,0.7-3.3,1.4-5,2
	c-1.7,0.6-3.4,1.1-5.1,1.4c-1.7,0.4-3.3,0.6-4.8,0.7c-1,0-2-0.1-3-0.4c-1-0.2-1.9-0.6-2.7-1.2c-0.8-0.5-1.4-1.2-1.9-2.1
	C223.9,199.5,223.7,198.5,223.7,197.3z M184.2,194.4L184.2,194.4z M184.2,194.4h0.4l6.1-6c0.7-0.6,1.4-1.4,2.2-2.3
	c0.9-0.9,1.8-1.8,2.7-2.6c0.9-0.8,1.9-1.5,2.9-2.1c1-0.6,2-0.9,3-0.9c1.1,0,2,0.2,2.8,0.7c0.9,0.4,1.3,1.2,1.3,2.3
	c0,0.7,0,1.2-0.1,1.6c0,0.4-0.2,1-0.5,1.6l-4,8.7l0.2,0.2l11.2-11.5c0.3-0.4,0.8-0.9,1.5-1.5c0.7-0.6,1.4-1.1,2.1-1.6
	c1-0.5,2.1-0.7,3-0.7c1-0.1,1.8,0.1,2.5,0.5c0.9,0.5,1.3,1.3,1.3,2.3c0,0.7,0,1.3-0.1,1.9c-0.2,0.5-0.3,1.1-0.6,1.7l-5.2,11.2
	c0,0.2-0.1,0.3-0.2,0.5c0,0.2-0.1,0.4-0.1,0.5c0.1,0.7,0.4,1.1,1.1,1c0.1,0,0.2,0,0.2,0c0.1,0,0.2,0,0.3-0.1
	c1.2-0.4,2.7-0.9,4.2-1.6c1.6-0.8,3-1.4,4.1-1.8c0,0.1,0,0.4,0,0.7c-0.1,0.4-0.1,0.7-0.1,1.1c-0.2,0.2-1,0.6-2.4,1.3
	c-1.5,0.6-3.1,1.3-4.9,2c-1.8,0.8-3.5,1.4-5.2,2c-1.7,0.6-2.7,0.9-3.2,0.9c-1.2,0-2.1-0.4-2.7-1.2c-0.5-0.8-0.9-1.6-0.9-2.5
	c0-0.4,0.1-0.8,0.3-1.2l5-10.3c0.1-0.3,0.2-0.6,0.2-0.8c0-0.2,0-0.3,0-0.5c0-0.4-0.3-0.6-0.8-0.6l-12.5,13.2
	c-0.3,0.3-0.5,0.7-0.8,1.1c-0.3,0.5-0.5,1.1-0.8,1.9c-0.5,0.1-1.2,0.2-2,0.3c-0.7,0.1-1.6,0.3-2.5,0.4s-1.9,0.2-2.8,0.3
	c-0.9,0-1.7,0.1-2.4,0.2l7.4-16c0.1-0.2,0.1-0.5,0.1-0.8c0-0.1-0.1-0.3-0.1-0.4c-0.1-0.1-0.3-0.2-0.6-0.2c-0.3,0-0.6,0.1-0.7,0.3
	c-0.2,0.2-0.4,0.4-0.6,0.5l-11.2,10.1c-0.8,0.8-1.3,1.6-1.5,2.3c-0.2,0.8-0.6,1.7-1.1,2.8c-0.4,0.1-1,0.2-1.9,0.3
	c-0.8,0.1-1.8,0.3-2.7,0.4c-1.1,0.2-2,0.3-2.9,0.4c-0.8,0.1-1.4,0.2-1.8,0.3c1.5-3.4,3-7.2,4.8-11.4c0.3-0.8,4.7-10.7,4.9-11.2
	c0.4,0,1.9-0.5,2.8-0.6c0.9-0.1,4.9-0.7,4.8-0.2C187,184.1,185.5,189.2,184.2,194.4z"/>
<path class="st1" d="M168.6,107.1c0,0-7.9-1.3-8.7-5.9"/>
<path class="st0" d="M341,229.9c-195,68.8-11.4,62.5,49.3,56.2c-93.6,1.9-224.1,8.3-48.5-64.6l-0.1,8.3
	C341.6,230.4,340.9,229.3,341,229.9z M321.8,195.3L321.8,195.3z M321.8,195.3c8.6-5.5,91.1-54,71-9.2c-9.1,15.3-22.7,26.8-35.5,37.1
	c-0.1-1.5,0.3-7.1,0.1-8.5c12.3-9.5,24.2-18.3,34.4-33.2c17.4-31.8-47.3,0.2-70.2,16L321.8,195.3z"/>
<path class="st2" d="M321.8,195.3c8.6-5.5,91.1-54,71-9.2c-9.1,15.3-22.7,26.8-35.5,37.1c-0.1-1.5,0.3-7.1,0.1-8.5
	c12.3-9.5,24.2-18.3,34.4-33.2c17.4-31.8-47.3,0.2-70.2,16L321.8,195.3z"/>
<path class="st2" d="M321.8,195.3L321.8,195.3z"/>
<path class="st2" d="M341,229.9c-195,68.8-11.4,62.5,49.3,56.2c-93.6,1.9-224.1,8.3-48.5-64.6l-0.1,8.3
	C341.6,230.4,340.9,229.3,341,229.9z"/>
</svg>
