<?xml version="1.0" encoding="utf-8"?>
<!-- Generator: Adobe Illustrator 23.1.0, SVG Export Plug-In . SVG Version: 6.00 Build 0)  -->
<svg version="1.1" id="Capa_1" xmlns="http://www.w3.org/2000/svg" xmlns:xlink="http://www.w3.org/1999/xlink" x="0px" y="0px"
	 viewBox="0 0 175.1 175.1" style="enable-background:new 0 0 175.1 175.1;" xml:space="preserve">
<style type="text/css">
	.st0{fill:#FF3399;}
</style>
<g>
	<path class="st0" d="M105,119.1c1,1.4,0.7,3.3-0.6,4.4c-9.2,6.9-18.1,9.4-26.1,9.4c-19.3,0-33.4-14.2-33.6-14.4
		c-1.2-1.2-1.2-3.2,0.1-4.4c1.2-1.2,3.2-1.2,4.4,0.1c1,1,24.5,24.6,51.5,4.4C102,117.5,103.9,117.8,105,119.1z M143.3,84.5
		c-7.9-0.9-14.4,0.8-19.2,5.1c-8.3,7.3-8.5,19.3-8.5,19.8c0,1.7,1.4,3.1,3.1,3.1l0,0c1.7,0,3.1-1.4,3.1-3.1c0-0.1,0.2-9.8,6.4-15.2
		c3.5-3,8.4-4.3,14.4-3.6c1.8,0.1,3.3-1,3.4-2.8C146.3,86.3,145,84.7,143.3,84.5z M30.8,117.4c-5.1-1.3-10.3-3.3-12.4-4.6
		c0.4-1.4,1.1-3.2,2.2-4.3c1.3-1.2,1.4-3.1,0.2-4.4c-1.2-1.3-3.1-1.4-4.4-0.2c-3.7,3.3-4.5,9-4.5,9.6c-0.1,0.8,0.1,1.6,0.6,2.2
		c2.7,3.8,12.7,6.6,16.8,7.7c0.3,0.1,0.5,0.1,0.8,0.1c1.4,0,2.7-0.9,3-2.3C33.5,119.5,32.5,117.8,30.8,117.4z M175.1,105.5
		c-1.5,32.8-23.4,46.8-73.2,46.8l0,0c-8.8,0-18.7-0.5-29.4-1.4C30.9,147.3,2.1,120,0.9,118.8c-0.7-0.7-1-1.6-0.9-2.6
		c4.2-39,48.6-88.4,50.5-90.5c2.7-2.2,6.5-3,11.9-3c7,0,14.3,1.4,14.6,1.5c0.5,0.1,1,0.4,1.4,0.7c10,8.7,8.8,19.4,8.7,19.9
		c-0.1,0.7-0.4,1.4-1,1.9L77.4,55c-0.6,0.5-1.3,0.8-2.1,0.8H59.9c-8.9,15.5-12.1,26.6-13,34.1c7.3-6.3,17.2-9.9,27.7-9.9
		c13.2,0,25.2,5.6,32.5,14.8c4.5-14.1,17.7-24.2,33.1-24.2c9.6,0,19,4,25.6,11C172.3,88.2,175.5,96.6,175.1,105.5z M168.8,105.2
		c0.3-7.1-2.3-14-7.4-19.3c-5.5-5.7-13.2-9-21.1-9c-15,0-27.4,11.7-28.4,26.6c-0.1,1.4-1.1,2.6-2.5,2.9c-1.4,0.2-2.8-0.5-3.4-1.8
		c-5-10.9-17.5-18.3-31.3-18.3c-11.6,0-22.3,5-28.4,13.5c-0.8,1-2.1,1.5-3.3,1.2s-2.2-1.4-2.3-2.7c-0.9-8.5,0.9-23.6,14.8-47.1
		c0.6-1,1.6-1.5,2.7-1.5H74l7-6.6c0-2.3-0.7-7.8-6.1-12.8c-2-0.4-7.6-1.2-12.6-1.2c-5.5,0-7.3,1-7.7,1.3c0,0.1-43.3,48.2-48.3,85
		c5.6,5,31.7,26.4,66.6,29.4c10.5,0.9,20.2,1.4,28.8,1.4C159,146.1,167.8,126.4,168.8,105.2z"/>
</g>
</svg>
