<?xml version="1.0" encoding="utf-8"?>
<!-- Generator: Adobe Illustrator 23.1.0, SVG Export Plug-In . SVG Version: 6.00 Build 0)  -->
<svg version="1.1" id="Слой_1" xmlns="http://www.w3.org/2000/svg" xmlns:xlink="http://www.w3.org/1999/xlink" x="0px" y="0px"
	 viewBox="0 0 512 512" style="enable-background:new 0 0 512 512;" xml:space="preserve">
<style type="text/css">
	.st0{fill:none;stroke:#FF3399;stroke-width:32;stroke-linecap:round;stroke-linejoin:round;}
</style>
<title>ionicons-v5-k</title>
<path class="st0" d="M183.5,38.5h145c24,0,43.5,19.5,43.5,43.5v348c0,24-19.5,43.5-43.5,43.5h-145c-24,0-43.5-19.5-43.5-43.5V82
	C140,58,159.5,38.5,183.5,38.5z"/>
<path class="st0" d="M183.5,38.5h21.8c4,0,7.3,3.3,7.3,7.3l0,0c0,8,6.5,14.5,14.5,14.5h58c8,0,14.5-6.5,14.5-14.5l0,0
	c0-4,3.3-7.3,7.3-7.3h21.8"/>
</svg>
